<svg width="36" height="36" viewBox="0 0 36 36" fill="none" xmlns="http://www.w3.org/2000/svg">
<path d="M22.5294 28.75H31.3529C32.3235 28.75 33.1176 29.5375 33.1176 30.5V32.25C33.1176 33.2125 32.3235 34 31.3529 34H20.7647C19.7941 34 19 33.2125 19 32.25L22.5294 28.75ZM23.4118 23.5H32.2353C33.2059 23.5 34 24.2875 34 25.25V27C34 27.9625 33.2059 28.75 32.2353 28.75H22.5294L23.4118 23.5ZM19 14.75C19 13.7875 19.7941 13 20.7647 13H31.3529C32.3235 13 33.1176 13.7875 33.1176 14.75V16.5C33.1176 17.4625 32.3235 18.25 31.3529 18.25H22.5294L19 14.75ZM22.5294 18.25H31.3529C32.3235 18.25 33.1176 19.0375 33.1176 20V21.75C33.1176 22.7125 32.3235 23.5 31.3529 23.5H23.4118" fill="url(#paint0_linear_0_73)"/>
<path d="M20.6154 13.0476C20.0769 12.6984 19.5385 12.3492 19 12C19.2692 12.6111 19.8974 13.0476 20.6154 13.0476ZM20.6154 13.0476C19.8974 13.0476 19.2692 13.4841 19 14.0952C22.141 16.1032 24.2051 19.5952 24.2051 23.5238H26C26 19.246 23.8462 15.4048 20.6154 13.0476ZM19 32.9524C19.2692 33.5635 19.8974 34 20.6154 34C23.9359 31.6429 26 27.8016 26 23.5238H24.2051C24.2051 27.4524 22.141 30.9444 19 32.9524Z" fill="url(#paint1_linear_0_73)"/>
<path d="M31.25 13H20.75C19.7875 13 19 12.175 19 11.1667V9.33333C19 8.325 19.7875 7.5 20.75 7.5H31.25C32.2125 7.5 33 8.325 33 9.33333V11.1667C33 12.175 32.2125 13 31.25 13ZM31.25 7.5H20.75C19.7875 7.5 19 6.675 19 5.66667V3.83333C19 2.825 19.7875 2 20.75 2H31.25C32.2125 2 33 2.825 33 3.83333V5.66667C33 6.675 32.2125 7.5 31.25 7.5Z" fill="url(#paint2_linear_0_73)"/>
<path d="M12.5 34C18.299 34 23 29.299 23 23.5C23 17.701 18.299 13 12.5 13C6.70101 13 2 17.701 2 23.5C2 29.299 6.70101 34 12.5 34Z" fill="url(#paint3_linear_0_73)"/>
<path d="M12.4125 18.7569H12.5H12.5875C13.55 18.8508 14.25 19.6022 14.25 20.6354C14.25 21.1989 14.6 21.5746 15.125 21.5746C15.65 21.5746 16 21.1989 16 20.6354C16 18.8508 14.8625 17.442 13.375 16.9724V15.9392C13.375 15.3757 13.025 15 12.5 15C11.975 15 11.625 15.3757 11.625 15.9392V16.9724C10.1375 17.3481 9 18.8508 9 20.6354C9 22.7017 10.575 24.3923 12.5 24.3923C13.4625 24.3923 14.25 25.2376 14.25 26.2707C14.25 27.3039 13.4625 28.1492 12.5 28.1492C11.5375 28.1492 10.75 27.3039 10.75 26.2707C10.75 25.7072 10.4 25.3315 9.875 25.3315C9.35 25.3315 9 25.7072 9 26.2707C9 28.0553 10.1375 29.4641 11.625 29.9337V31.0608C11.625 31.6243 11.975 32 12.5 32C13.025 32 13.375 31.6243 13.375 31.0608V29.9337C14.8625 29.558 16 28.0553 16 26.2707C16 24.2044 14.425 22.5138 12.5 22.5138C11.5375 22.5138 10.75 21.6685 10.75 20.6354C10.75 19.6022 11.45 18.8508 12.4125 18.7569Z" fill="white"/>
<path d="M33.7441 22.9211C33.9235 22.4737 34.1029 22.0263 34.1029 21.5789V19.7895C34.1029 19.0737 33.8338 18.4474 33.3852 18C33.8338 17.5526 34.1029 16.9263 34.1029 16.2105V14.4211C34.1029 13.7053 33.8338 13.0789 33.3852 12.6316C33.8338 12.1842 34.1029 11.5579 34.1029 10.8421V9.05263C34.1029 8.33684 33.8338 7.71053 33.3852 7.26316C33.8338 6.81579 34.1029 6.18947 34.1029 5.47368V3.68421C34.1029 2.16316 32.9367 1 31.4116 1H20.6464C19.1214 1 17.9551 2.16316 17.9551 3.68421V5.47368C17.9551 6.18947 18.2243 6.81579 18.6728 7.26316C18.2243 7.71053 17.9551 8.33684 17.9551 9.05263V10.8421C17.9551 11.5579 18.2243 12.1842 18.6728 12.6316C18.4934 12.8105 18.4037 12.9895 18.314 13.2579C16.6095 12.2737 14.7256 11.7368 12.6623 11.7368C6.20317 11.7368 1 16.9263 1 23.3684C1 29.8105 6.20317 35 12.6623 35C14.7256 35 16.6992 34.4632 18.314 33.4789C18.7625 34.3737 19.6596 35 20.7361 35H31.5013C33.0264 35 34.1926 33.8368 34.1926 32.3158V30.5263C34.1926 30.0789 34.0132 29.6316 33.8338 29.1842C34.4617 28.7368 35 27.9316 35 26.9474V25.1579C35 24.1737 34.4617 23.3684 33.7441 22.9211ZM33.2058 26.9474C33.2058 27.4842 32.847 27.8421 32.3087 27.8421H31.4116H23.3377C23.7863 26.7684 24.0554 25.5158 24.2348 24.2632H32.3087C32.847 24.2632 33.2058 24.6211 33.2058 25.1579V26.9474ZM32.3087 19.7895V21.5789C32.3087 22.1158 31.9499 22.4737 31.4116 22.4737H24.2348C24.1451 21.2211 23.876 19.9684 23.3377 18.8947H31.4116C31.8602 18.8947 32.3087 19.3421 32.3087 19.7895ZM19.7493 9.05263C19.7493 8.60526 20.1082 8.15789 20.6464 8.15789H31.4116C31.8602 8.15789 32.3087 8.60526 32.3087 9.05263V10.8421C32.3087 11.3789 31.9499 11.7368 31.4116 11.7368H20.6464C20.1082 11.7368 19.7493 11.3789 19.7493 10.8421V9.05263ZM19.7493 3.68421C19.7493 3.14737 20.1082 2.78947 20.6464 2.78947H31.4116C31.9499 2.78947 32.3087 3.14737 32.3087 3.68421V5.47368C32.3087 5.92105 31.9499 6.36842 31.4116 6.36842H20.6464C20.1979 6.36842 19.7493 5.92105 19.7493 5.47368V3.68421ZM20.6464 13.5263H31.4116C31.9499 13.5263 32.3087 13.8842 32.3087 14.4211V16.2105C32.3087 16.6579 31.9499 17.1053 31.4116 17.1053H22.4406V17.1947C21.723 16.0316 20.8259 15.0474 19.7493 14.2421C19.839 13.7947 20.1979 13.5263 20.6464 13.5263ZM2.70449 23.3684C2.70449 17.9105 7.10026 13.5263 12.5726 13.5263C18.0449 13.5263 22.4406 17.9105 22.4406 23.3684C22.4406 28.8263 18.0449 33.2105 12.5726 33.2105C7.10026 33.2105 2.70449 28.8263 2.70449 23.3684ZM32.3087 32.3158C32.3087 32.8526 31.9499 33.2105 31.4116 33.2105H20.6464C20.1979 33.2105 19.839 32.9421 19.7493 32.4947C20.8259 31.6895 21.723 30.7053 22.4406 29.5421V29.6316H31.4116C31.8602 29.6316 32.3087 30.0789 32.3087 30.5263V32.3158Z" fill="white"/>
<defs>
<linearGradient id="paint0_linear_0_73" x1="26.5" y1="13" x2="26.5" y2="34" gradientUnits="userSpaceOnUse">
<stop stop-color="#BDB2FD"/>
<stop offset="1" stop-color="#917FF2"/>
</linearGradient>
<linearGradient id="paint1_linear_0_73" x1="22.5" y1="12" x2="22.5" y2="34" gradientUnits="userSpaceOnUse">
<stop stop-color="#BDB2FD"/>
<stop offset="1" stop-color="#917FF2"/>
</linearGradient>
<linearGradient id="paint2_linear_0_73" x1="26" y1="2" x2="26" y2="13" gradientUnits="userSpaceOnUse">
<stop stop-color="#BDB2FD"/>
<stop offset="1" stop-color="#917FF2"/>
</linearGradient>
<linearGradient id="paint3_linear_0_73" x1="12.5" y1="13" x2="12.5" y2="34" gradientUnits="userSpaceOnUse">
<stop stop-color="#BDB2FD"/>
<stop offset="1" stop-color="#917FF2"/>
</linearGradient>
</defs>
</svg>
