<svg width="36" height="36" viewBox="0 0 36 36" fill="none" xmlns="http://www.w3.org/2000/svg">
<g clip-path="url(#clip0_0_68)">
<path d="M22.9894 10.6875H12.8644L9.96863 3.77103C9.86162 3.5568 9.82577 3.31403 9.86627 3.07802C9.90678 2.84201 10.0215 2.62508 10.1938 2.4588C10.3661 2.29251 10.587 2.18554 10.8243 2.15346C11.0616 2.12137 11.303 2.16585 11.5133 2.2804L13.0736 3.13203C13.5003 3.36469 13.9909 3.45295 14.4719 3.3836C14.9529 3.31424 15.3985 3.091 15.7421 2.74728L16.3361 2.15328C16.7581 1.73147 17.3303 1.49451 17.9269 1.49451C18.5235 1.49451 19.0957 1.73147 19.5176 2.15328L20.1116 2.74728C20.4552 3.091 20.9008 3.31424 21.3819 3.3836C21.8629 3.45295 22.3534 3.36469 22.7801 3.13203L24.3405 2.2804C24.5508 2.16585 24.7921 2.12137 25.0294 2.15346C25.2667 2.18554 25.4876 2.29251 25.6599 2.4588C25.8322 2.62508 25.947 2.84201 25.9875 3.07802C26.028 3.31403 25.9921 3.5568 25.8851 3.77103L22.9894 10.6875ZM24.9581 35.4375H10.7494C9.24397 35.4375 7.78175 34.9343 6.59518 34.0079C5.40862 33.0814 4.56581 31.7849 4.20075 30.3244L4.18388 30.2569C3.55275 27.734 3.60574 25.0885 4.3374 22.593C5.06906 20.0974 6.45292 17.8421 8.34638 16.0594L11.6663 12.9375H25.1663L28.1509 16.1213C29.8235 17.9054 31.0221 20.0806 31.6369 22.4476C32.2516 24.8147 32.263 27.2982 31.6699 29.6708L31.5068 30.3244C31.1417 31.7849 30.2989 33.0814 29.1123 34.0079C27.9258 34.9343 26.4635 35.4375 24.9581 35.4375Z" fill="url(#paint0_linear_0_68)"/>
<path d="M17.8538 30.9375C21.5817 30.9375 24.6038 27.9154 24.6038 24.1875C24.6038 20.4596 21.5817 17.4375 17.8538 17.4375C14.1258 17.4375 11.1038 20.4596 11.1038 24.1875C11.1038 27.9154 14.1258 30.9375 17.8538 30.9375Z" fill="url(#paint1_linear_0_68)"/>
<path d="M24.1774 10.5244H11.8429C11.1756 10.5244 10.6346 11.0654 10.6346 11.7327V11.8913C10.6346 12.5586 11.1756 13.0995 11.8429 13.0995H24.1774C24.8447 13.0995 25.3856 12.5586 25.3856 11.8913V11.7327C25.3856 11.0654 24.8447 10.5244 24.1774 10.5244Z" fill="url(#paint2_linear_0_68)"/>
<path d="M18 16.875C16.5537 16.875 15.1399 17.3038 13.9374 18.1074C12.7349 18.9109 11.7976 20.0529 11.2441 21.3891C10.6907 22.7253 10.5459 24.1956 10.828 25.6141C11.1102 27.0326 11.8066 28.3355 12.8293 29.3582C13.852 30.3809 15.1549 31.0773 16.5734 31.3595C17.9919 31.6416 19.4622 31.4968 20.7984 30.9433C22.1346 30.3899 23.2766 29.4526 24.0801 28.2501C24.8836 27.0475 25.3125 25.6338 25.3125 24.1875C25.3101 22.2488 24.5389 20.3902 23.1681 19.0194C21.7972 17.6485 19.9387 16.8774 18 16.875ZM18 30.375C16.7762 30.375 15.5799 30.0121 14.5624 29.3322C13.5449 28.6523 12.7518 27.6859 12.2835 26.5553C11.8152 25.4247 11.6926 24.1806 11.9314 22.9804C12.1701 21.7801 12.7594 20.6776 13.6248 19.8123C14.4901 18.9469 15.5926 18.3576 16.7929 18.1189C17.9931 17.8801 19.2372 18.0027 20.3679 18.471C21.4985 18.9393 22.4648 19.7324 23.1447 20.7499C23.8246 21.7674 24.1875 22.9637 24.1875 24.1875C24.1854 25.8279 23.5328 27.4005 22.3729 28.5604C21.213 29.7203 19.6404 30.3729 18 30.375ZM28.7089 15.7376L25.7535 12.5876C25.8802 12.35 25.9473 12.0851 25.9492 11.8159C25.9492 11.3683 25.7715 10.9391 25.455 10.6226C25.1385 10.3061 24.7093 10.1284 24.2617 10.1284H23.9816L26.5354 4.02635C26.6962 3.70494 26.7503 3.34057 26.6896 2.9863C26.629 2.63204 26.4568 2.3064 26.1982 2.05681C25.9395 1.80723 25.608 1.64674 25.2518 1.59872C24.8956 1.5507 24.5334 1.61766 24.2179 1.78985L22.6575 2.64035C22.3372 2.81366 21.9696 2.87924 21.6092 2.82737C21.2487 2.7755 20.9145 2.60894 20.6561 2.35235L20.0632 1.75835C19.8021 1.49711 19.492 1.28987 19.1507 1.14849C18.8094 1.0071 18.4437 0.934326 18.0742 0.934326C17.7048 0.934326 17.3391 1.0071 16.9978 1.14849C16.6565 1.28987 16.3464 1.49711 16.0852 1.75835L15.4924 2.35235C15.2337 2.60846 14.8995 2.7747 14.5392 2.82655C14.1789 2.8784 13.8114 2.81313 13.491 2.64035L11.925 1.78648C11.6125 1.61803 11.2549 1.5524 10.903 1.59893C10.5511 1.64545 10.2228 1.80177 9.96491 2.04563C9.70697 2.28949 9.53249 2.60848 9.46631 2.95722C9.40012 3.30596 9.44559 3.66669 9.59625 3.9881L12.1657 10.125H11.8856C11.5383 10.1231 11.1989 10.2289 10.9142 10.4279C10.6295 10.6268 10.4135 10.9092 10.2959 11.236C10.1784 11.5628 10.165 11.9181 10.2577 12.2528C10.3504 12.5875 10.5446 12.8853 10.8135 13.1051L8.1135 15.651C6.14147 17.5121 4.70209 19.866 3.94402 22.4695C3.18596 25.073 3.13672 27.8316 3.80137 30.4605C4.19502 32.0437 5.10754 33.4494 6.39337 34.4534C7.6792 35.4575 9.26424 36.0019 10.8956 36H25.1044C26.7356 36.002 28.3205 35.4577 29.6063 34.4539C30.8921 33.4501 31.8048 32.0446 32.1986 30.4616L32.3629 29.808C32.9844 27.3445 32.9755 24.7642 32.3369 22.3051C31.6983 19.846 30.4506 17.5873 28.7089 15.7376ZM10.6177 3.51898C10.5639 3.41179 10.5457 3.29019 10.5659 3.17194C10.586 3.05368 10.6434 2.94497 10.7298 2.86167C10.8161 2.77837 10.9268 2.72484 11.0457 2.70891C11.1645 2.69297 11.2854 2.71547 11.3906 2.7731L12.951 3.6236C13.4843 3.91266 14.0964 4.02266 14.697 3.93739C15.2976 3.85211 15.8549 3.57607 16.2866 3.14998L16.875 2.55148C17.0317 2.39466 17.2178 2.27027 17.4226 2.18539C17.6274 2.10052 17.8469 2.05684 18.0686 2.05684C18.2903 2.05684 18.5098 2.10052 18.7147 2.18539C18.9195 2.27027 19.1055 2.39466 19.2622 2.55148L19.8551 3.14548C20.2861 3.57266 20.843 3.84996 21.4436 3.93646C22.0442 4.02295 22.6567 3.91406 23.1907 3.62585L24.75 2.77423C24.8544 2.71401 24.9759 2.69007 25.0953 2.70615C25.2148 2.72223 25.3256 2.77742 25.4104 2.8631C25.5019 2.95056 25.5612 3.06632 25.5787 3.19167C25.5963 3.31702 25.5711 3.44462 25.5071 3.55385L22.761 10.125H13.3875L10.6177 3.51898ZM11.8856 11.25H24.2606C24.4098 11.25 24.5529 11.3092 24.6584 11.4147C24.7639 11.5202 24.8231 11.6633 24.8231 11.8125C24.8231 11.9617 24.7639 12.1047 24.6584 12.2102C24.5529 12.3157 24.4098 12.375 24.2606 12.375H11.8856C11.7364 12.375 11.5934 12.3157 11.4879 12.2102C11.3824 12.1047 11.3231 11.9617 11.3231 11.8125C11.3231 11.6633 11.3824 11.5202 11.4879 11.4147C11.5934 11.3092 11.7364 11.25 11.8856 11.25ZM31.275 29.5346L31.1107 30.1882C30.7775 31.5284 30.0048 32.7182 28.9161 33.5678C27.8274 34.4173 26.4853 34.8776 25.1044 34.875H10.8956C9.50422 34.8731 8.1539 34.4032 7.06197 33.5408C5.97003 32.6785 5.19999 31.4738 4.87575 30.1207C4.27077 27.6947 4.32291 25.1513 5.02681 22.7522C5.73071 20.353 7.06095 18.1846 8.88075 16.47L12.0375 13.5H25.0684L27.8876 16.506C29.5012 18.2183 30.6573 20.3095 31.2493 22.5866C31.8414 24.8637 31.8502 27.2532 31.275 29.5346ZM17.4375 21.375H18.5625C18.8609 21.375 19.147 21.4935 19.358 21.7045C19.569 21.9155 19.6875 22.2016 19.6875 22.5C19.6875 22.6492 19.7468 22.7922 19.8523 22.8977C19.9577 23.0032 20.1008 23.0625 20.25 23.0625C20.3992 23.0625 20.5423 23.0032 20.6477 22.8977C20.7532 22.7922 20.8125 22.6492 20.8125 22.5C20.8125 21.9032 20.5754 21.3309 20.1535 20.909C19.7315 20.487 19.1592 20.25 18.5625 20.25V19.6875C18.5625 19.5383 18.5032 19.3952 18.3977 19.2897C18.2923 19.1842 18.1492 19.125 18 19.125C17.8508 19.125 17.7077 19.1842 17.6023 19.2897C17.4968 19.3952 17.4375 19.5383 17.4375 19.6875V20.25C16.8408 20.25 16.2685 20.487 15.8465 20.909C15.4246 21.3309 15.1875 21.9032 15.1875 22.5C15.1875 23.0967 15.4246 23.669 15.8465 24.091C16.2685 24.5129 16.8408 24.75 17.4375 24.75H18.5625C18.8609 24.75 19.147 24.8685 19.358 25.0795C19.569 25.2905 19.6875 25.5766 19.6875 25.875C19.6875 26.1733 19.569 26.4595 19.358 26.6705C19.147 26.8815 18.8609 27 18.5625 27H17.4375C17.1391 27 16.853 26.8815 16.642 26.6705C16.431 26.4595 16.3125 26.1733 16.3125 25.875C16.3125 25.7258 16.2532 25.5827 16.1477 25.4772C16.0423 25.3717 15.8992 25.3125 15.75 25.3125C15.6008 25.3125 15.4577 25.3717 15.3523 25.4772C15.2468 25.5827 15.1875 25.7258 15.1875 25.875C15.1875 26.4717 15.4246 27.044 15.8465 27.466C16.2685 27.8879 16.8408 28.125 17.4375 28.125V28.6875C17.4375 28.8367 17.4968 28.9797 17.6023 29.0852C17.7077 29.1907 17.8508 29.25 18 29.25C18.1492 29.25 18.2923 29.1907 18.3977 29.0852C18.5032 28.9797 18.5625 28.8367 18.5625 28.6875V28.125C19.1592 28.125 19.7315 27.8879 20.1535 27.466C20.5754 27.044 20.8125 26.4717 20.8125 25.875C20.8125 25.2782 20.5754 24.7059 20.1535 24.284C19.7315 23.862 19.1592 23.625 18.5625 23.625H17.4375C17.1391 23.625 16.853 23.5065 16.642 23.2955C16.431 23.0845 16.3125 22.7983 16.3125 22.5C16.3125 22.2016 16.431 21.9155 16.642 21.7045C16.853 21.4935 17.1391 21.375 17.4375 21.375Z" fill="white"/>
</g>
<defs>
<linearGradient id="paint0_linear_0_68" x1="17.9266" y1="1.49451" x2="17.9266" y2="35.4375" gradientUnits="userSpaceOnUse">
<stop stop-color="#FEBBC7"/>
<stop offset="1" stop-color="#FF8CA1"/>
</linearGradient>
<linearGradient id="paint1_linear_0_68" x1="17.8538" y1="17.4375" x2="17.8538" y2="30.9375" gradientUnits="userSpaceOnUse">
<stop stop-color="#FEBBC7"/>
<stop offset="1" stop-color="#FF8CA1"/>
</linearGradient>
<linearGradient id="paint2_linear_0_68" x1="18.0101" y1="10.5244" x2="18.0101" y2="13.0995" gradientUnits="userSpaceOnUse">
<stop stop-color="#FEBBC7"/>
<stop offset="1" stop-color="#FF8CA1"/>
</linearGradient>
<clipPath id="clip0_0_68">
<rect width="36" height="36" fill="white"/>
</clipPath>
</defs>
</svg>
