<svg width="50" height="50" viewBox="0 0 50 50" fill="none" xmlns="http://www.w3.org/2000/svg">
<g clip-path="url(#clip0_0_80)">
<path d="M24.8292 47.073C37.0197 47.073 46.9021 37.1906 46.9021 25C46.9021 12.8095 37.0197 2.92712 24.8292 2.92712C12.6386 2.92712 2.75626 12.8095 2.75626 25C2.75626 37.1906 12.6386 47.073 24.8292 47.073Z" fill="url(#paint0_linear_0_80)"/>
<path d="M25.0084 35.2063C30.6451 35.2063 35.2146 30.6368 35.2146 25.0001C35.2146 19.3633 30.6451 14.7938 25.0084 14.7938C19.3716 14.7938 14.8021 19.3633 14.8021 25.0001C14.8021 30.6368 19.3716 35.2063 25.0084 35.2063Z" fill="url(#paint1_linear_0_80)"/>
<path d="M24.8292 2.92713C19.1098 2.92342 13.6141 5.14854 9.50836 9.13026C13.9619 5.64576 19.5836 4.00493 25.2123 4.54672C30.8409 5.08851 36.0465 7.77154 39.7536 12.0415C43.4607 16.3115 45.3861 21.8423 45.132 27.4913C44.878 33.1402 42.464 38.4759 38.3886 42.3959C42.0188 39.5734 44.676 35.6869 45.9888 31.28C47.3015 26.873 47.204 22.166 45.71 17.8171C44.2159 13.4683 41.4001 9.69513 37.6561 7.02536C33.9122 4.35559 29.4275 2.92272 24.8292 2.92713Z" fill="url(#paint2_linear_0_80)"/>
<path d="M25.0084 14.7917C23.605 14.7916 22.2169 15.0818 20.9311 15.6441C19.6454 16.2065 18.49 17.0289 17.5375 18.0595C19.6132 16.6528 22.1343 16.0599 24.6194 16.3941C27.1045 16.7283 29.3794 17.9662 31.0096 19.8713C32.6399 21.7764 33.5114 24.2153 33.4575 26.7221C33.4037 29.229 32.4283 31.6282 30.7177 33.4615C32.5296 32.2387 33.901 30.4666 34.6303 28.406C35.3596 26.3454 35.4082 24.1051 34.769 22.0148C34.1297 19.9245 32.8364 18.0945 31.0793 16.7943C29.3223 15.494 27.1942 14.7921 25.0084 14.7917Z" fill="url(#paint3_linear_0_80)"/>
<path d="M25.0083 14.7917C23.605 14.7916 22.2168 15.0818 20.9311 15.6441C19.6454 16.2065 18.4899 17.0289 17.5375 18.0595C19.6132 16.6528 22.1343 16.0599 24.6193 16.3941C27.1044 16.7283 29.3793 17.9662 31.0096 19.8713C32.6399 21.7764 33.5113 24.2153 33.4574 26.7221C33.4036 29.229 32.4283 31.6282 30.7177 33.4615C32.5295 32.2387 33.901 30.4666 34.6302 28.406C35.3595 26.3454 35.4081 24.1051 34.7689 22.0148C34.1297 19.9245 32.8364 18.0945 31.0793 16.7943C29.3222 15.494 27.1942 14.7921 25.0083 14.7917Z" fill="url(#paint4_linear_0_80)"/>
<path d="M24.8292 47.073C30.5483 47.0772 36.0439 44.852 40.149 40.8699C35.6955 44.3544 30.0737 45.9952 24.445 45.4534C18.8164 44.9116 13.6108 42.2286 9.90374 37.9586C6.19665 33.6886 4.27125 28.1578 4.52528 22.5089C4.77932 16.8599 7.19337 11.5243 11.2688 7.60425C7.6385 10.4268 4.9812 14.3133 3.6685 18.7204C2.3558 23.1275 2.45336 27.8346 3.94752 32.1835C5.44168 36.5324 8.25773 40.3055 12.0018 42.9752C15.7459 45.6449 20.2308 47.0776 24.8292 47.073Z" fill="url(#paint5_linear_0_80)"/>
<path d="M24.649 35.2084C26.0523 35.2086 27.4405 34.9183 28.7262 34.356C30.0119 33.7936 31.1674 32.9713 32.1198 31.9407C30.0442 33.3474 27.523 33.9402 25.038 33.606C22.5529 33.2718 20.278 32.0339 18.6477 30.1288C17.0174 28.2237 16.146 25.7849 16.1999 23.278C16.2537 20.7711 17.229 18.3719 18.9396 16.5386C17.1278 17.7614 15.7564 19.5335 15.0271 21.5941C14.2978 23.6548 14.2492 25.895 14.8884 27.9854C15.5276 30.0757 16.8209 31.9056 18.578 33.2059C20.3351 34.5061 22.4631 35.2081 24.649 35.2084Z" fill="url(#paint6_linear_0_80)"/>
<path d="M24.6492 35.2084C26.0525 35.2086 27.4407 34.9183 28.7264 34.356C30.0121 33.7936 31.1676 32.9713 32.12 31.9407C30.0443 33.3474 27.5232 33.9402 25.0382 33.606C22.5531 33.2718 20.2782 32.0339 18.6479 30.1288C17.0176 28.2237 16.1462 25.7849 16.2 23.278C16.2539 20.7711 17.2292 18.3719 18.9398 16.5386C17.128 17.7614 15.7565 19.5335 15.0272 21.5941C14.298 23.6548 14.2494 25.895 14.8886 27.9854C15.5278 30.0757 16.8211 31.9056 18.5782 33.2058C20.3353 34.5061 22.4633 35.208 24.6492 35.2084Z" fill="url(#paint7_linear_0_80)"/>
<path d="M25.9094 31.6218V30.2083H25.924C26.7528 30.2083 27.5476 29.8791 28.1337 29.293C28.7197 28.707 29.049 27.9121 29.049 27.0833C29.049 26.2545 28.7197 25.4596 28.1337 24.8736C27.5476 24.2875 26.7528 23.9583 25.924 23.9583H23.8104C23.5342 23.9583 23.2692 23.8486 23.0739 23.6532C22.8785 23.4579 22.7688 23.1929 22.7688 22.9166C22.7688 22.6404 22.8785 22.3754 23.0739 22.1801C23.2692 21.9847 23.5342 21.875 23.8104 21.875H25.924C26.2002 21.875 26.4652 21.9847 26.6605 22.1801C26.8559 22.3754 26.9656 22.6404 26.9656 22.9166C26.9656 23.1929 27.0754 23.4579 27.2707 23.6532C27.4661 23.8486 27.731 23.9583 28.0073 23.9583C28.2836 23.9583 28.5485 23.8486 28.7439 23.6532C28.9392 23.4579 29.049 23.1929 29.049 22.9166C29.049 22.0878 28.7197 21.293 28.1337 20.7069C27.5476 20.1209 26.7528 19.7916 25.924 19.7916H25.9094V18.3781C25.9094 18.1018 25.7996 17.8369 25.6043 17.6415C25.4089 17.4462 25.144 17.3364 24.8677 17.3364C24.5914 17.3364 24.3265 17.4462 24.1311 17.6415C23.9358 17.8369 23.826 18.1018 23.826 18.3781V19.7916H23.8104C22.9816 19.7916 22.1868 20.1209 21.6007 20.7069C21.0147 21.293 20.6854 22.0878 20.6854 22.9166C20.6854 23.7454 21.0147 24.5403 21.6007 25.1263C22.1868 25.7124 22.9816 26.0416 23.8104 26.0416H25.924C26.2002 26.0416 26.4652 26.1514 26.6605 26.3467C26.8559 26.5421 26.9656 26.807 26.9656 27.0833C26.9656 27.3596 26.8559 27.6245 26.6605 27.8199C26.4652 28.0152 26.2002 28.125 25.924 28.125H23.8104C23.5342 28.125 23.2692 28.0152 23.0739 27.8199C22.8785 27.6245 22.7688 27.3596 22.7688 27.0833C22.7688 26.807 22.659 26.5421 22.4637 26.3467C22.2683 26.1514 22.0034 26.0416 21.7271 26.0416C21.4508 26.0416 21.1859 26.1514 20.9905 26.3467C20.7952 26.5421 20.6854 26.807 20.6854 27.0833C20.6854 27.9121 21.0147 28.707 21.6007 29.293C22.1868 29.8791 22.9816 30.2083 23.8104 30.2083H23.826V31.6208C23.826 31.8971 23.9358 32.162 24.1311 32.3574C24.3265 32.5527 24.5914 32.6625 24.8677 32.6625C25.144 32.6625 25.4089 32.5527 25.6043 32.3574C25.7996 32.162 25.9094 31.8971 25.9094 31.6208V31.6218Z" fill="white"/>
<path d="M49.8667 31.8135L47.8125 28.1468L47.8063 28.1395C47.7529 28.0549 47.6873 27.9788 47.6115 27.9135C47.5854 27.8885 47.5677 27.8531 47.5396 27.8312C47.5095 27.8143 47.4786 27.799 47.4469 27.7854C47.363 27.7279 47.271 27.6833 47.174 27.6531H47.1636C47.1196 27.648 47.0755 27.6456 47.0313 27.6458C46.945 27.6303 46.8572 27.6257 46.7698 27.6322C46.6982 27.6476 46.6284 27.6703 46.5615 27.6999C46.5047 27.713 46.4493 27.7311 46.3959 27.7541L42.4688 29.9552C42.3463 30.0203 42.238 30.1093 42.1504 30.2168C42.0628 30.3244 41.9975 30.4484 41.9584 30.5815C41.9193 30.7146 41.9073 30.8542 41.9229 30.9921C41.9385 31.13 41.9815 31.2633 42.0494 31.3843C42.1172 31.5053 42.2086 31.6116 42.3181 31.6968C42.4276 31.782 42.553 31.8445 42.6869 31.8806C42.8209 31.9167 42.9607 31.9257 43.0982 31.907C43.2357 31.8883 43.368 31.8424 43.4875 31.7718L45.2698 30.7729C44.6824 32.8747 43.7734 34.873 42.575 36.6968C40.3353 35.9866 38.0474 35.438 35.7292 35.0552C35.8625 34.5052 35.9854 33.942 36.0979 33.3656C36.1508 33.0944 36.0939 32.8134 35.9395 32.5842C35.7852 32.3551 35.5462 32.1966 35.275 32.1437C35.0039 32.0908 34.7228 32.1478 34.4936 32.3021C34.2645 32.4564 34.1061 32.6955 34.0531 32.9666C33.9344 33.577 33.799 34.1656 33.6563 34.7427C32.807 34.6302 31.9476 34.534 31.0781 34.4541C32.6655 33.4397 33.972 32.0419 34.8769 30.3896C35.7819 28.7373 36.2562 26.8838 36.2562 24.9999C36.2562 23.1161 35.7819 21.2626 34.8769 19.6103C33.972 17.958 32.6655 16.5602 31.0781 15.5458C31.949 15.4652 32.8087 15.369 33.6573 15.2572C33.7896 15.7895 33.9146 16.3322 34.0261 16.8927C34.0847 17.1589 34.2454 17.3916 34.4737 17.5407C34.702 17.6898 34.9796 17.7435 35.247 17.6902C35.5144 17.6368 35.7503 17.4808 35.9039 17.2555C36.0575 17.0303 36.1167 16.7538 36.0688 16.4854C35.9646 15.9645 35.849 15.4437 35.7271 14.9447C38.0299 14.5658 40.3026 14.0231 42.5281 13.3208C44.6468 16.4812 45.8663 20.1582 46.0563 23.9583H38.5729C38.2967 23.9583 38.0317 24.068 37.8364 24.2634C37.641 24.4587 37.5313 24.7237 37.5313 24.9999C37.5313 25.2762 37.641 25.5412 37.8364 25.7365C38.0317 25.9319 38.2967 26.0416 38.5729 26.0416H47.1229C47.3992 26.0416 47.6642 25.9319 47.8595 25.7365C48.0549 25.5412 48.1646 25.2762 48.1646 24.9999C48.1685 20.1448 46.642 15.4119 43.8021 11.4739C43.7809 11.4378 43.7576 11.4031 43.7323 11.3697C41.2102 7.88483 37.7688 5.16976 33.7926 3.52783C29.8164 1.8859 25.4621 1.38176 21.2159 2.07175C16.9698 2.76174 12.9991 4.61867 9.74737 7.43511C6.49567 10.2515 4.09104 13.9166 2.8021 18.0208L1.95001 16.501C1.88486 16.3785 1.79589 16.2703 1.68833 16.1826C1.58077 16.095 1.45679 16.0297 1.32366 15.9906C1.19053 15.9516 1.05094 15.9395 0.913073 15.9551C0.775211 15.9707 0.641858 16.0137 0.520844 16.0816C0.399829 16.1495 0.29359 16.2408 0.208365 16.3503C0.123139 16.4598 0.0606443 16.5852 0.0245482 16.7191C-0.0115479 16.8531 -0.0205176 16.9929 -0.00183431 17.1304C0.016849 17.2679 0.0628088 17.4003 0.133347 17.5197L2.18751 21.1708V21.1791C2.2463 21.2808 2.32245 21.3714 2.41251 21.4468C2.43439 21.4666 2.45835 21.4833 2.48231 21.501C2.57091 21.5676 2.66978 21.6193 2.77501 21.6541C2.78543 21.6541 2.79272 21.6666 2.80314 21.6697H2.81251C2.90457 21.6967 2.99993 21.7107 3.09585 21.7114C3.12189 21.7114 3.14793 21.7031 3.17501 21.701C3.2021 21.6989 3.23231 21.6947 3.26043 21.6906C3.36946 21.6726 3.47495 21.6375 3.57293 21.5864C3.58144 21.5834 3.58979 21.5799 3.59793 21.576L7.53439 19.375C7.77543 19.2399 7.95294 19.0145 8.02785 18.7486C8.10277 18.4826 8.06896 18.1978 7.93387 17.9567C7.86698 17.8374 7.77723 17.7324 7.66976 17.6477C7.56228 17.563 7.43918 17.5003 7.30749 17.4633C7.04152 17.3883 6.75668 17.4221 6.51564 17.5572L4.82918 18.502C5.41554 16.6645 6.25148 14.9162 7.31356 13.3062C9.55005 14.0136 11.8344 14.5598 14.149 14.9406C14.025 15.4531 13.9083 15.9749 13.8021 16.5104C13.7485 16.7815 13.8048 17.0629 13.9587 17.2925C14.1125 17.5221 14.3513 17.6812 14.6224 17.7348C14.8936 17.7884 15.1749 17.7321 15.4045 17.5783C15.6342 17.4244 15.7933 17.1857 15.8469 16.9145C15.9594 16.3458 16.0865 15.7937 16.2208 15.2479C17.1083 15.3652 18.0077 15.4652 18.9188 15.5479C17.3368 16.5637 16.0354 17.9607 15.134 19.6107C14.2327 21.2606 13.7604 23.1105 13.7604 24.9906C13.7604 26.8706 14.2327 28.7206 15.134 30.3705C16.0354 32.0204 17.3368 33.4174 18.9188 34.4333C18.0083 34.5152 17.1094 34.6152 16.2219 34.7333C16.0792 34.1562 15.9427 33.5677 15.824 32.9572C15.8015 32.8195 15.7516 32.6878 15.6773 32.5697C15.6029 32.4517 15.5056 32.3498 15.3911 32.27C15.2766 32.1903 15.1472 32.1344 15.0107 32.1057C14.8742 32.0769 14.7333 32.0758 14.5963 32.1026C14.4594 32.1293 14.3292 32.1833 14.2135 32.2613C14.0979 32.3393 13.999 32.4397 13.9229 32.5566C13.8468 32.6736 13.7949 32.8046 13.7704 32.9419C13.7459 33.0793 13.7492 33.2202 13.7802 33.3562C13.892 33.9333 14.0149 34.4965 14.149 35.0458C11.8467 35.4248 9.57429 35.9672 7.34897 36.6687C5.23324 33.5109 4.01455 29.8379 3.82293 26.0416H11.274C11.5502 26.0416 11.8152 25.9319 12.0105 25.7365C12.2059 25.5412 12.3156 25.2762 12.3156 24.9999C12.3156 24.7237 12.2059 24.4587 12.0105 24.2634C11.8152 24.068 11.5502 23.9583 11.274 23.9583H2.75626C2.48 23.9583 2.21504 24.068 2.01969 24.2634C1.82434 24.4587 1.7146 24.7237 1.7146 24.9999C1.71051 29.8692 3.24581 34.6151 6.10106 38.5593C6.1146 38.577 6.12501 38.5979 6.1396 38.6145C8.68987 42.1432 12.1815 44.883 16.2154 46.521C20.2492 48.159 24.6626 48.6289 28.9509 47.8771C33.2393 47.1253 37.2296 45.1821 40.4657 42.2696C43.7018 39.3572 46.0532 35.5929 47.2511 31.4072L48.05 32.8333C48.1856 33.0735 48.4109 33.2501 48.6766 33.3244C48.9422 33.3987 49.2265 33.3646 49.467 33.2295C49.7076 33.0945 49.8847 32.8696 49.9596 32.6041C50.0346 32.3387 50.0011 32.0543 49.8667 31.8135ZM25.9802 46.0031V36.2666C28.3557 36.3021 30.7274 36.4693 33.0844 36.7677C31.4521 41.8812 28.8334 45.3197 25.9802 46.0031ZM25.9802 13.7333V3.99682C28.8271 4.68224 31.449 8.12391 33.0823 13.2322C30.726 13.5306 28.355 13.6978 25.9802 13.7333ZM41.2167 11.551C39.2343 12.1388 37.2163 12.5988 35.175 12.9281C34.3388 9.89098 32.8404 7.07674 30.7875 4.68745C34.875 5.87456 38.5095 8.2665 41.2167 11.551ZM8.63856 11.5447C11.3516 8.26331 14.9919 5.87728 19.0833 4.69891C17.0365 7.08613 15.5426 9.89619 14.7083 12.9281C12.6574 12.5982 10.6299 12.1362 8.63856 11.5447ZM23.8969 3.99682V13.7333C21.5224 13.6978 19.1518 13.5305 16.7958 13.2322C18.4292 8.12495 21.05 4.68745 23.8969 3.99682ZM15.8438 24.9999C15.8438 23.187 16.3814 21.4147 17.3886 19.9072C18.3959 18.3998 19.8275 17.2249 21.5025 16.5311C23.1775 15.8372 25.0206 15.6557 26.7988 16.0094C28.5769 16.3631 30.2103 17.2362 31.4922 18.5181C32.7742 19.8001 33.6473 21.4335 34.001 23.2116C34.3547 24.9898 34.1731 26.8329 33.4793 28.5079C32.7855 30.1829 31.6106 31.6145 30.1032 32.6218C28.5957 33.629 26.8234 34.1666 25.0104 34.1666C22.5799 34.1647 20.2494 33.1983 18.5308 31.4796C16.8121 29.761 15.8457 27.4305 15.8438 24.9999ZM23.8969 36.2666V46.0031C21.0458 45.3197 18.4271 41.8812 16.7948 36.7677C19.1511 36.4694 21.5221 36.3021 23.8969 36.2666ZM8.66147 38.4489C10.6456 37.861 12.6654 37.4007 14.7083 37.0708C15.5411 40.1055 17.0351 42.9182 19.0833 45.3072C14.9994 44.1197 11.3678 41.7298 8.66147 38.4489ZM30.7802 45.3239C32.8364 42.9332 34.336 40.1157 35.1709 37.0749C37.2282 37.4062 39.262 37.8703 41.2594 38.4645C38.5469 41.7647 34.8905 44.157 30.7802 45.3208V45.3239Z" fill="white"/>
</g>
<defs>
<linearGradient id="paint0_linear_0_80" x1="24.8292" y1="2.92712" x2="24.8292" y2="47.073" gradientUnits="userSpaceOnUse">
<stop stop-color="#FEBBC7"/>
<stop offset="1" stop-color="#FF8CA1"/>
</linearGradient>
<linearGradient id="paint1_linear_0_80" x1="25.0084" y1="14.7938" x2="25.0084" y2="35.2063" gradientUnits="userSpaceOnUse">
<stop stop-color="#FEBBC7"/>
<stop offset="1" stop-color="#FF8CA1"/>
</linearGradient>
<linearGradient id="paint2_linear_0_80" x1="28.2075" y1="2.92712" x2="28.2075" y2="42.3959" gradientUnits="userSpaceOnUse">
<stop stop-color="#FEBBC7"/>
<stop offset="1" stop-color="#FF8CA1"/>
</linearGradient>
<linearGradient id="paint3_linear_0_80" x1="26.3764" y1="14.7917" x2="26.3764" y2="33.4615" gradientUnits="userSpaceOnUse">
<stop stop-color="#FEBBC7"/>
<stop offset="1" stop-color="#FF8CA1"/>
</linearGradient>
<linearGradient id="paint4_linear_0_80" x1="26.3763" y1="14.7917" x2="26.3763" y2="33.4615" gradientUnits="userSpaceOnUse">
<stop stop-color="#FEBBC7"/>
<stop offset="1" stop-color="#FF8CA1"/>
</linearGradient>
<linearGradient id="paint5_linear_0_80" x1="21.4498" y1="7.60425" x2="21.4498" y2="47.073" gradientUnits="userSpaceOnUse">
<stop stop-color="#FEBBC7"/>
<stop offset="1" stop-color="#FF8CA1"/>
</linearGradient>
<linearGradient id="paint6_linear_0_80" x1="23.281" y1="16.5386" x2="23.281" y2="35.2084" gradientUnits="userSpaceOnUse">
<stop stop-color="#FEBBC7"/>
<stop offset="1" stop-color="#FF8CA1"/>
</linearGradient>
<linearGradient id="paint7_linear_0_80" x1="23.2812" y1="16.5386" x2="23.2812" y2="35.2084" gradientUnits="userSpaceOnUse">
<stop stop-color="#FEBBC7"/>
<stop offset="1" stop-color="#FF8CA1"/>
</linearGradient>
<clipPath id="clip0_0_80">
<rect width="50" height="50" fill="white"/>
</clipPath>
</defs>
</svg>
