<svg width="40" height="40" viewBox="0 0 40 40" fill="none" xmlns="http://www.w3.org/2000/svg">
<path d="M31.9287 1H8.07125C7.25671 1 6.47552 1.31607 5.89955 1.87868C5.32358 2.44129 5 3.20435 5 4V36C5 36.7957 5.32358 37.5587 5.89955 38.1213C6.47552 38.6839 7.25671 39 8.07125 39H31.9287C32.7433 39 33.5245 38.6839 34.1005 38.1213C34.6764 37.5587 35 36.7957 35 36V4C35 3.20435 34.6764 2.44129 34.1005 1.87868C33.5245 1.31607 32.7433 1 31.9287 1ZM24.525 3H29.0561V12.26L27.5061 10.78C27.3148 10.5968 27.0575 10.4941 26.7895 10.4941C26.5215 10.4941 26.2643 10.5968 26.0729 10.78L24.5229 12.26L24.525 3ZM32.9525 36C32.9525 36.2652 32.8446 36.5196 32.6526 36.7071C32.4607 36.8946 32.2003 37 31.9287 37H8.07125C7.79974 37 7.53934 36.8946 7.34735 36.7071C7.15536 36.5196 7.0475 36.2652 7.0475 36V4C7.0475 3.73478 7.15536 3.48043 7.34735 3.29289C7.53934 3.10536 7.79974 3 8.07125 3H22.4775V14.636C22.4771 14.8331 22.5364 15.0259 22.6478 15.1902C22.7592 15.3545 22.9179 15.483 23.1039 15.5595C23.2898 15.636 23.4947 15.6571 23.6929 15.6202C23.8911 15.5833 24.0738 15.49 24.2179 15.352L26.7895 12.892L29.3632 15.352C29.5549 15.5345 29.8122 15.6365 30.0799 15.636C30.2163 15.6366 30.3515 15.6101 30.4771 15.558C30.6628 15.4816 30.8213 15.3534 30.9328 15.1894C31.0443 15.0254 31.1037 14.8329 31.1036 14.636V3H31.9226C32.1941 3 32.4545 3.10536 32.6465 3.29289C32.8385 3.48043 32.9464 3.73478 32.9464 4L32.9525 36ZM28.4828 27.162C28.4828 27.4272 28.3749 27.6816 28.183 27.8691C27.991 28.0566 27.7306 28.162 27.459 28.162H12.541C12.2694 28.162 12.009 28.0566 11.817 27.8691C11.6251 27.6816 11.5172 27.4272 11.5172 27.162C11.5172 26.8968 11.6251 26.6424 11.817 26.4549C12.009 26.2674 12.2694 26.162 12.541 26.162H27.459C27.7306 26.162 27.991 26.2674 28.183 26.4549C28.3749 26.6424 28.4828 26.8968 28.4828 27.162ZM28.4828 32.018C28.4828 32.2832 28.3749 32.5376 28.183 32.7251C27.991 32.9126 27.7306 33.018 27.459 33.018H12.541C12.2694 33.018 12.009 32.9126 11.817 32.7251C11.6251 32.5376 11.5172 32.2832 11.5172 32.018C11.5172 31.7528 11.6251 31.4984 11.817 31.3109C12.009 31.1234 12.2694 31.018 12.541 31.018H27.459C27.7306 31.018 27.991 31.1234 28.183 31.3109C28.3749 31.4984 28.4828 31.7528 28.4828 32.018Z" fill="white"/>
</svg>
