<svg width="40" height="40" viewBox="0 0 40 40" fill="none" xmlns="http://www.w3.org/2000/svg">
<path d="M36.6709 5.05662C26.3169 5.41498 20.599 0.264713 20.5421 0.21471C20.3926 0.0765031 20.1985 0 19.9971 0C19.7958 0 19.6016 0.0765031 19.4522 0.21471C19.3953 0.264713 13.6936 5.41498 3.32335 5.05662C3.13191 5.05306 2.94539 5.1188 2.79661 5.24228C2.64783 5.36575 2.54634 5.53905 2.50999 5.73166C2.45305 6.01501 -2.51655 33.9748 19.8019 39.9751C19.9356 40.0083 20.075 40.0083 20.2086 39.9751C42.519 33.9748 37.5494 6.01501 37.4843 5.73166C37.4479 5.53905 37.3464 5.36575 37.1977 5.24228C37.0489 5.1188 36.8624 5.05306 36.6709 5.05662ZM19.9971 38.3C1.02155 33.0414 3.32335 11.0236 3.98216 6.74004C12.9291 6.83172 18.3216 3.20653 19.9971 1.90646C21.6727 3.20653 27.1221 6.84005 36.004 6.74004C36.5896 10.9486 38.7369 33.0997 19.9971 38.3Z" fill="white"/>
<path d="M34.0699 8.20294C29.2499 8.02643 24.5553 6.62221 20.4323 4.12376C20.3027 4.04288 20.1529 4 20 4C19.8471 4 19.6973 4.04288 19.5677 4.12376C15.4511 6.61537 10.7654 8.01663 5.95456 8.1948C5.75875 8.20362 5.57268 8.28253 5.43038 8.4171C5.28809 8.55166 5.1991 8.73288 5.1797 8.92758C4.55981 15.5552 4.72294 31.4567 19.7635 35.9674C19.9181 36.0109 20.0819 36.0109 20.2365 35.9674C35.2771 31.4567 35.4402 15.5552 34.8203 8.92758C34.7998 8.73827 34.7136 8.5621 34.5765 8.4297C34.4394 8.29731 34.2601 8.21707 34.0699 8.20294ZM20.0245 34.339C6.85993 30.2679 6.27267 16.3206 6.77021 9.7825C11.4419 9.49725 15.9815 8.12244 20.0245 5.76846C24.0658 8.12609 28.6063 9.50117 33.2787 9.7825C33.7763 16.3206 33.189 30.2354 20.0245 34.339Z" fill="white"/>
<path d="M24.5243 16.2467L17.9531 22.8831L15.4801 20.3464C15.3158 20.1881 15.0976 20.0998 14.8707 20.0998C14.6437 20.0998 14.4255 20.1881 14.2613 20.3464C14.1785 20.4295 14.1128 20.5283 14.0679 20.6371C14.0231 20.746 14 20.8627 14 20.9806C14 21.0985 14.0231 21.2153 14.0679 21.3241C14.1128 21.433 14.1785 21.5317 14.2613 21.6148L17.3525 24.741C17.4351 24.8237 17.5329 24.8892 17.6406 24.9337C17.7482 24.9781 17.8634 25.0007 17.9796 25C18.0959 25.0007 18.2111 24.9781 18.3187 24.9337C18.4263 24.8892 18.5242 24.8237 18.6067 24.741L25.7432 17.5061C25.9077 17.3387 26 17.1124 26 16.8764C26 16.6404 25.9077 16.414 25.7432 16.2467C25.5789 16.0883 25.3607 16 25.1337 16C24.9068 16 24.6886 16.0883 24.5243 16.2467Z" fill="white"/>
</svg>
