<svg width="40" height="40" viewBox="0 0 40 40" fill="none" xmlns="http://www.w3.org/2000/svg">
<g clip-path="url(#clip0_0_99)">
<mask id="path-1-outside-1_0_99" maskUnits="userSpaceOnUse" x="3.99994" y="-1" width="29" height="42" fill="black">
<rect fill="white" x="3.99994" y="-1" width="29" height="42"/>
<path d="M13.2712 29.9546C13.1166 29.97 12.9744 30.0462 12.876 30.1664C12.7775 30.2867 12.7309 30.4411 12.7463 30.5957C12.7806 30.9407 12.8519 31.2811 12.959 31.6109C13.007 31.7587 13.1118 31.8813 13.2503 31.9518C13.3888 32.0224 13.5496 32.035 13.6974 31.9869C13.8452 31.9389 13.9679 31.8341 14.0384 31.6956C14.1089 31.5571 14.1215 31.3963 14.0735 31.2485C13.9924 30.9987 13.9383 30.7409 13.9123 30.4796C13.9048 30.403 13.8823 30.3286 13.846 30.2607C13.8096 30.1929 13.7603 30.1328 13.7007 30.0841C13.6412 30.0353 13.5726 29.9988 13.4989 29.9765C13.4252 29.9543 13.3478 29.9469 13.2712 29.9546ZM13.9764 26.8765C13.9069 26.8432 13.8317 26.824 13.7548 26.8199C13.678 26.8157 13.6011 26.8268 13.5286 26.8524C13.456 26.878 13.3892 26.9177 13.332 26.9691C13.2747 27.0205 13.2282 27.0828 13.195 27.1522C13.0455 27.465 12.93 27.793 12.8506 28.1305C12.833 28.2054 12.8304 28.2831 12.8428 28.359C12.8552 28.4349 12.8825 28.5077 12.923 28.5731C12.9635 28.6385 13.0165 28.6953 13.079 28.7402C13.1415 28.7851 13.2122 28.8173 13.2871 28.8349C13.362 28.8525 13.4397 28.8552 13.5156 28.8428C13.5916 28.8304 13.6643 28.8031 13.7297 28.7626C13.7951 28.722 13.8519 28.669 13.8968 28.6065C13.9418 28.5441 13.9739 28.4734 13.9915 28.3984C14.0516 28.1429 14.139 27.8946 14.2522 27.6579C14.2854 27.5884 14.3046 27.5132 14.3087 27.4363C14.3128 27.3595 14.3017 27.2826 14.2761 27.21C14.2505 27.1375 14.2108 27.0707 14.1594 27.0134C14.108 26.9562 14.0458 26.9096 13.9764 26.8765ZM16.551 25.0601C16.4938 24.9156 16.3816 24.7997 16.2391 24.7379C16.0965 24.6761 15.9352 24.6735 15.7907 24.7306C15.4684 24.8581 15.1607 25.0198 14.8728 25.2129C14.7438 25.2995 14.6544 25.4339 14.6244 25.5863C14.5944 25.7388 14.6262 25.897 14.7128 26.026C14.7994 26.155 14.9337 26.2444 15.0862 26.2744C15.2387 26.3044 15.3968 26.2726 15.5259 26.186C15.744 26.0396 15.9772 25.9171 16.2215 25.8204C16.293 25.7921 16.3583 25.75 16.4136 25.6965C16.4689 25.643 16.5131 25.5791 16.5437 25.5085C16.5743 25.4379 16.5907 25.362 16.5919 25.285C16.5932 25.2081 16.5793 25.1317 16.551 25.0601ZM13.8481 17.0349C14.0035 17.0349 14.1525 16.9732 14.2624 16.8633C14.3723 16.7534 14.434 16.6044 14.434 16.449C14.434 16.2936 14.3723 16.1445 14.2624 16.0347C14.1525 15.9248 14.0035 15.863 13.8481 15.863H12.9349C12.7795 15.863 12.6304 15.9248 12.5205 16.0347C12.4107 16.1445 12.3489 16.2936 12.3489 16.449C12.3489 16.6044 12.4107 16.7534 12.5205 16.8633C12.6304 16.9732 12.7795 17.0349 12.9349 17.0349H13.8481ZM14.3698 33.7531C14.6298 33.9818 14.9135 34.1822 15.216 34.3507C15.2833 34.3885 15.3573 34.4125 15.4339 34.4216C15.5105 34.4307 15.5881 34.4245 15.6623 34.4035C15.7365 34.3825 15.8058 34.3471 15.8663 34.2993C15.9267 34.2514 15.9772 34.1921 16.0147 34.1248C16.0522 34.0574 16.076 33.9833 16.0848 33.9067C16.0936 33.8301 16.0873 33.7525 16.066 33.6784C16.0448 33.6043 16.0091 33.535 15.9611 33.4747C15.9131 33.4144 15.8536 33.3642 15.7861 33.3269C15.5565 33.1989 15.3412 33.0468 15.1439 32.8732C15.0271 32.771 14.8746 32.7192 14.7198 32.7293C14.5649 32.7393 14.4204 32.8104 14.3179 32.9269C14.2154 33.0434 14.1633 33.1959 14.173 33.3507C14.1827 33.5056 14.2535 33.6503 14.3698 33.7531ZM9.79247 3.51562C9.86942 3.51563 9.94561 3.50048 10.0167 3.47104C10.0878 3.44159 10.1524 3.39843 10.2068 3.34402C10.2612 3.28961 10.3044 3.22501 10.3338 3.15392C10.3633 3.08283 10.3784 3.00664 10.3784 2.92969C10.3789 2.46365 10.5643 2.01685 10.8938 1.68732C11.2234 1.35778 11.6702 1.17241 12.1362 1.17188H13.0972L13.7841 2.54448C13.9293 2.83701 14.1535 3.08303 14.4313 3.25468C14.7091 3.42632 15.0295 3.51671 15.3561 3.51562H25.8695C26.1961 3.51671 26.5164 3.42632 26.7943 3.25468C27.0721 3.08303 27.2963 2.83701 27.4415 2.54448L28.1284 1.17188H29.1675C29.6335 1.17241 30.0803 1.35778 30.4098 1.68732C30.7394 2.01685 30.9247 2.46365 30.9253 2.92969L31.0807 39.4141C31.0807 39.5695 31.1424 39.7185 31.2523 39.8284C31.3622 39.9383 31.5112 40 31.6666 40C31.822 40 31.971 39.9383 32.0809 39.8284C32.1908 39.7185 32.2525 39.5695 32.2525 39.4141L32.0971 2.92969C32.0963 2.15295 31.7873 1.40828 31.2381 0.859051C30.6889 0.309817 29.9442 0.000874057 29.1675 0L12.1362 0C11.3595 0.000874057 10.6148 0.309817 10.0656 0.859051C9.51635 1.40828 9.20741 2.15295 9.20653 2.92969C9.20653 3.00664 9.22168 3.08283 9.25112 3.15392C9.28057 3.22501 9.32373 3.28961 9.37814 3.34402C9.43255 3.39843 9.49714 3.44159 9.56823 3.47104C9.63933 3.50048 9.71552 3.51563 9.79247 3.51562ZM26.818 1.17188L26.3935 2.02004C26.3451 2.11754 26.2704 2.19954 26.1777 2.25676C26.0851 2.31397 25.9784 2.3441 25.8695 2.34375H15.3561C15.2472 2.3441 15.1404 2.31397 15.0478 2.25676C14.9552 2.19954 14.8805 2.11754 14.8321 2.02004L14.4076 1.17188H26.818ZM17.6302 16.449C17.6302 16.372 17.6151 16.2958 17.5856 16.2247C17.5562 16.1536 17.513 16.0891 17.4586 16.0346C17.4042 15.9802 17.3396 15.9371 17.2685 15.9076C17.1974 15.8782 17.1212 15.863 17.0443 15.863H16.131C15.9756 15.863 15.8266 15.9248 15.7167 16.0347C15.6068 16.1445 15.5451 16.2936 15.5451 16.449C15.5451 16.6044 15.6068 16.7534 15.7167 16.8633C15.8266 16.9732 15.9756 17.0349 16.131 17.0349H17.0443C17.1212 17.0349 17.1974 17.0198 17.2685 16.9903C17.3396 16.9609 17.4042 16.9177 17.4586 16.8633C17.513 16.8089 17.5562 16.7443 17.5856 16.6732C17.6151 16.6021 17.6302 16.5259 17.6302 16.449ZM27.526 18.6798C27.4539 18.7066 27.3877 18.7473 27.3313 18.7997C27.275 18.852 27.2294 18.915 27.1974 18.9849C27.1653 19.0549 27.1474 19.1305 27.1445 19.2073C27.1417 19.2842 27.154 19.3609 27.1808 19.4331C27.2721 19.6792 27.3366 19.9345 27.3734 20.1944C27.3952 20.3483 27.4771 20.4872 27.6013 20.5806C27.7255 20.674 27.8817 20.7143 28.0356 20.6925C28.1894 20.6708 28.3283 20.5888 28.4218 20.4646C28.5152 20.3404 28.5554 20.1842 28.5337 20.0304C28.4852 19.6871 28.3999 19.35 28.2792 19.025C28.2525 18.9529 28.2118 18.8867 28.1594 18.8303C28.1071 18.7739 28.0441 18.7284 27.9742 18.6963C27.9042 18.6643 27.8286 18.6463 27.7517 18.6435C27.6748 18.6406 27.5981 18.653 27.526 18.6798ZM20.2612 21.7188C19.6818 21.7188 19.1154 21.8906 18.6336 22.2125C18.1518 22.5344 17.7763 22.992 17.5545 23.5273C17.3328 24.0626 17.2748 24.6517 17.3878 25.22C17.5009 25.7883 17.7799 26.3103 18.1896 26.72C18.5993 27.1298 19.1214 27.4088 19.6897 27.5218C20.258 27.6349 20.847 27.5769 21.3824 27.3551C21.9177 27.1334 22.3752 26.7579 22.6972 26.2761C23.0191 25.7943 23.1909 25.2279 23.1909 24.6484C23.19 23.8717 22.8811 23.127 22.3319 22.5778C21.7826 22.0286 21.0379 21.7196 20.2612 21.7188ZM20.2612 26.4062C19.9136 26.4062 19.5737 26.3032 19.2846 26.11C18.9956 25.9169 18.7703 25.6423 18.6372 25.3211C18.5042 24.9999 18.4694 24.6465 18.5372 24.3055C18.605 23.9645 18.7724 23.6513 19.0183 23.4055C19.2641 23.1596 19.5773 22.9922 19.9183 22.9244C20.2593 22.8566 20.6127 22.8914 20.9339 23.0244C21.2551 23.1575 21.5296 23.3828 21.7228 23.6718C21.9159 23.9609 22.019 24.3008 22.019 24.6484C22.0185 25.1145 21.8331 25.5613 21.5036 25.8908C21.174 26.2203 20.7273 26.4057 20.2612 26.4062ZM21.8012 33.7891H20.888C20.7326 33.7891 20.5835 33.8508 20.4736 33.9607C20.3638 34.0706 20.302 34.2196 20.302 34.375C20.302 34.5304 20.3638 34.6794 20.4736 34.7893C20.5835 34.8992 20.7326 34.9609 20.888 34.9609H21.8012C21.9566 34.9609 22.1056 34.8992 22.2155 34.7893C22.3254 34.6794 22.3871 34.5304 22.3871 34.375C22.3871 34.2196 22.3254 34.0706 22.2155 33.9607C22.1056 33.8508 21.9566 33.7891 21.8012 33.7891ZM9.79461 17.0349C9.86076 17.0347 9.92641 17.0233 9.98877 17.0012C10.0512 17.0234 10.1169 17.0348 10.1831 17.0349H10.6518C10.7722 17.0349 10.8896 16.9979 10.9881 16.9289C11.0867 16.8598 11.1615 16.7621 11.2026 16.649C11.2437 16.5359 11.2489 16.4129 11.2176 16.2968C11.1863 16.1806 11.12 16.0769 11.0277 15.9997C12.2992 14.586 14.5849 11.7206 14.5849 9.39071C14.5849 6.79733 12.4361 4.6875 9.79468 4.6875C9.17403 4.68498 8.55904 4.80551 7.98527 5.04213C7.41149 5.27875 6.89031 5.62677 6.45186 6.06606C5.57807 6.94692 5.06249 8.12086 5.0051 9.36027C4.93079 10.7914 5.65902 12.5014 7.16956 14.4429C7.84858 15.3134 8.59476 16.1293 9.40123 16.8832C9.5089 16.9809 9.64917 17.035 9.79461 17.0349ZM6.17545 9.42116C6.28096 7.39059 7.8369 5.85938 9.79468 5.85938C11.7898 5.85938 13.4131 7.44354 13.4131 9.39072C13.4131 10.4654 12.7301 11.942 11.438 13.6609C10.9203 14.3449 10.3663 15.0005 9.77813 15.6248C8.45092 14.3109 6.06742 11.4993 6.17545 9.42116ZM11.7456 9.375C11.7456 8.98871 11.631 8.61109 11.4164 8.2899C11.2018 7.96871 10.8968 7.71838 10.5399 7.57055C10.183 7.42272 9.7903 7.38404 9.41143 7.4594C9.03256 7.53477 8.68455 7.72078 8.4114 7.99393C8.13825 8.26708 7.95224 8.6151 7.87687 8.99396C7.80151 9.37283 7.84019 9.76554 7.98802 10.1224C8.13584 10.4793 8.38618 10.7844 8.70737 10.999C9.02856 11.2136 9.40618 11.3281 9.79247 11.3281C10.3103 11.3275 10.8067 11.1216 11.1729 10.7554C11.539 10.3893 11.745 9.89282 11.7456 9.375ZM9.01122 9.375C9.01122 9.22048 9.05704 9.06944 9.14288 8.94096C9.22873 8.81248 9.35074 8.71235 9.4935 8.65322C9.63625 8.59409 9.79334 8.57862 9.94488 8.60876C10.0964 8.63891 10.2356 8.71331 10.3449 8.82257C10.4542 8.93183 10.5286 9.07104 10.5587 9.22259C10.5889 9.37413 10.5734 9.53122 10.5142 9.67397C10.4551 9.81673 10.355 9.93874 10.2265 10.0246C10.098 10.1104 9.94699 10.1562 9.79247 10.1562C9.58534 10.156 9.38677 10.0736 9.24031 9.92716C9.09385 9.7807 9.01146 9.58213 9.01122 9.375ZM26.8687 17.7671C26.9172 17.7073 26.9534 17.6386 26.9752 17.5648C26.9971 17.491 27.0043 17.4137 26.9962 17.3372C26.9882 17.2606 26.9652 17.1864 26.9285 17.1188C26.8918 17.0512 26.8421 16.9914 26.7824 16.943C26.5131 16.7249 26.2214 16.5362 25.912 16.3801C25.7733 16.3102 25.6125 16.2983 25.465 16.347C25.3175 16.3957 25.1953 16.5009 25.1254 16.6396C25.0554 16.7783 25.0434 16.9391 25.092 17.0866C25.1406 17.2341 25.2457 17.3563 25.3844 17.4264C25.619 17.5448 25.8403 17.688 26.0446 17.8535C26.1653 17.9513 26.32 17.9972 26.4746 17.981C26.6291 17.9648 26.7709 17.8878 26.8687 17.7671ZM31.6666 38.6565L12.1362 38.8281C11.6702 38.8276 11.2234 38.6422 10.8938 38.3127C10.5643 37.9831 10.3789 37.5364 10.3784 37.0703V18.7927C10.3784 18.6373 10.3167 18.4883 10.2068 18.3784C10.0969 18.2685 9.94787 18.2068 9.79247 18.2068C9.63707 18.2068 9.48803 18.2685 9.37815 18.3784C9.26826 18.4883 9.20653 18.6373 9.20653 18.7927V37.0703C9.20741 37.847 9.51635 38.5917 10.0656 39.1409C10.6148 39.6902 11.3595 39.9991 12.1362 40L31.6666 39.8284C31.822 39.8284 31.971 39.7667 32.0809 39.6568C32.1908 39.5469 32.2525 39.3978 32.2525 39.2424C32.2525 39.087 32.1908 38.938 32.0809 38.8281C31.971 38.7182 31.822 38.6565 31.6666 38.6565ZM17.6918 34.9609H18.605C18.7604 34.9609 18.9095 34.8992 19.0193 34.7893C19.1292 34.6794 19.191 34.5304 19.191 34.375C19.191 34.2196 19.1292 34.0706 19.0193 33.9607C18.9095 33.8508 18.7604 33.7891 18.605 33.7891H17.6918C17.5364 33.7891 17.3874 33.8508 17.2775 33.9607C17.1676 34.0706 17.1059 34.2196 17.1059 34.375C17.1059 34.5304 17.1676 34.6794 17.2775 34.7893C17.3874 34.8992 17.5364 34.9609 17.6918 34.9609ZM26.8974 23.6298C26.9605 23.6738 27.0317 23.7049 27.1069 23.7214C27.182 23.7379 27.2597 23.7395 27.3355 23.7259C27.4112 23.7124 27.4836 23.6841 27.5484 23.6426C27.6132 23.6011 27.6692 23.5472 27.7131 23.484C27.9112 23.1996 28.0783 22.8948 28.2115 22.5748C28.2411 22.5038 28.2564 22.4276 28.2566 22.3506C28.2568 22.2736 28.2417 22.1974 28.2124 22.1262C28.1831 22.055 28.14 21.9903 28.0857 21.9358C28.0313 21.8813 27.9668 21.838 27.8957 21.8084C27.8246 21.7788 27.7484 21.7636 27.6714 21.7635C27.5944 21.7634 27.5182 21.7785 27.447 21.8079C27.3759 21.8372 27.3112 21.8804 27.2567 21.9348C27.2022 21.9892 27.159 22.0538 27.1295 22.1249C27.0286 22.3674 26.9019 22.5985 26.7517 22.814C26.7077 22.8772 26.6766 22.9483 26.6601 23.0235C26.6436 23.0987 26.6421 23.1763 26.6556 23.2521C26.6691 23.3278 26.6975 23.4002 26.7389 23.465C26.7804 23.5298 26.8343 23.5858 26.8974 23.6298ZM24.0226 16.449C24.0226 16.372 24.0074 16.2958 23.978 16.2247C23.9486 16.1536 23.9054 16.0891 23.851 16.0346C23.7966 15.9802 23.732 15.9371 23.6609 15.9076C23.5898 15.8782 23.5136 15.863 23.4366 15.863H22.5235C22.3681 15.863 22.219 15.9248 22.1092 16.0347C21.9993 16.1445 21.9375 16.2936 21.9375 16.449C21.9375 16.6044 21.9993 16.7534 22.1092 16.8633C22.219 16.9732 22.3681 17.0349 22.5235 17.0349H23.4366C23.5136 17.0349 23.5898 17.0198 23.6609 16.9903C23.732 16.9609 23.7966 16.9177 23.851 16.8633C23.9054 16.8089 23.9486 16.7443 23.978 16.6732C24.0074 16.6021 24.0226 16.5259 24.0226 16.449ZM20.2405 17.0349C20.3959 17.0349 20.5449 16.9732 20.6548 16.8633C20.7647 16.7534 20.8264 16.6044 20.8264 16.449C20.8264 16.2936 20.7647 16.1445 20.6548 16.0347C20.5449 15.9248 20.3959 15.863 20.2405 15.863H19.3273C19.1719 15.863 19.0229 15.9248 18.913 16.0347C18.8031 16.1445 18.7414 16.2936 18.7414 16.449C18.7414 16.6044 18.8031 16.7534 18.913 16.8633C19.0229 16.9732 19.1719 17.0349 19.3273 17.0349H20.2405ZM25.4619 10.4297V8.32031C25.4615 7.97855 25.3255 7.65091 25.0839 7.40925C24.8422 7.16759 24.5146 7.03165 24.1728 7.03125H17.1309C16.7891 7.03165 16.4615 7.16759 16.2198 7.40925C15.9782 7.65091 15.8422 7.97855 15.8418 8.32031V10.4297C15.8422 10.7714 15.9782 11.0991 16.2198 11.3408C16.4615 11.5824 16.7891 11.7184 17.1309 11.7188H24.1728C24.5146 11.7184 24.8422 11.5824 25.0839 11.3408C25.3255 11.0991 25.4615 10.7714 25.4619 10.4297ZM24.29 10.4297C24.29 10.4608 24.2776 10.4905 24.2556 10.5125C24.2337 10.5345 24.2039 10.5468 24.1728 10.5469H17.1309C17.0998 10.5468 17.07 10.5345 17.048 10.5125C17.0261 10.4905 17.0137 10.4608 17.0137 10.4297V8.32031C17.0137 8.28924 17.0261 8.25946 17.048 8.23749C17.07 8.21552 17.0998 8.20316 17.1309 8.20312H24.1728C24.2039 8.20316 24.2337 8.21552 24.2556 8.23749C24.2776 8.25946 24.29 8.28924 24.29 8.32031V10.4297ZM24.0842 34.9609H24.9974C25.1528 34.9609 25.3018 34.8992 25.4117 34.7893C25.5216 34.6794 25.5833 34.5304 25.5833 34.375C25.5833 34.2196 25.5216 34.0706 25.4117 33.9607C25.3018 33.8508 25.1528 33.7891 24.9974 33.7891H24.0842C23.9288 33.7891 23.7798 33.8508 23.6699 33.9607C23.56 34.0706 23.4983 34.2196 23.4983 34.375C23.4983 34.5304 23.56 34.6794 23.6699 34.7893C23.7798 34.8992 23.9288 34.9609 24.0842 34.9609ZM26.0344 24.3513C25.9698 24.2099 25.8517 24.1 25.7061 24.0457C25.5605 23.9914 25.3993 23.9972 25.2579 24.0617C25.0192 24.1708 24.7693 24.2538 24.5128 24.3093C24.4376 24.3256 24.3663 24.3565 24.303 24.4003C24.2398 24.4441 24.1857 24.4999 24.1441 24.5646C24.1024 24.6293 24.0738 24.7016 24.0601 24.7773C24.0463 24.853 24.0476 24.9307 24.0639 25.0059C24.0801 25.0811 24.111 25.1524 24.1548 25.2156C24.1986 25.2789 24.2545 25.3329 24.3192 25.3746C24.3838 25.4163 24.4561 25.4448 24.5318 25.4586C24.6075 25.4723 24.6852 25.471 24.7604 25.4548C25.0993 25.3814 25.4294 25.2718 25.7448 25.1277C25.8862 25.0631 25.9961 24.9451 26.0504 24.7995C26.1047 24.6538 26.0989 24.4926 26.0344 24.3513Z"/>
</mask>
<path d="M13.2712 29.9546C13.1166 29.97 12.9744 30.0462 12.876 30.1664C12.7775 30.2867 12.7309 30.4411 12.7463 30.5957C12.7806 30.9407 12.8519 31.2811 12.959 31.6109C13.007 31.7587 13.1118 31.8813 13.2503 31.9518C13.3888 32.0224 13.5496 32.035 13.6974 31.9869C13.8452 31.9389 13.9679 31.8341 14.0384 31.6956C14.1089 31.5571 14.1215 31.3963 14.0735 31.2485C13.9924 30.9987 13.9383 30.7409 13.9123 30.4796C13.9048 30.403 13.8823 30.3286 13.846 30.2607C13.8096 30.1929 13.7603 30.1328 13.7007 30.0841C13.6412 30.0353 13.5726 29.9988 13.4989 29.9765C13.4252 29.9543 13.3478 29.9469 13.2712 29.9546ZM13.9764 26.8765C13.9069 26.8432 13.8317 26.824 13.7548 26.8199C13.678 26.8157 13.6011 26.8268 13.5286 26.8524C13.456 26.878 13.3892 26.9177 13.332 26.9691C13.2747 27.0205 13.2282 27.0828 13.195 27.1522C13.0455 27.465 12.93 27.793 12.8506 28.1305C12.833 28.2054 12.8304 28.2831 12.8428 28.359C12.8552 28.4349 12.8825 28.5077 12.923 28.5731C12.9635 28.6385 13.0165 28.6953 13.079 28.7402C13.1415 28.7851 13.2122 28.8173 13.2871 28.8349C13.362 28.8525 13.4397 28.8552 13.5156 28.8428C13.5916 28.8304 13.6643 28.8031 13.7297 28.7626C13.7951 28.722 13.8519 28.669 13.8968 28.6065C13.9418 28.5441 13.9739 28.4734 13.9915 28.3984C14.0516 28.1429 14.139 27.8946 14.2522 27.6579C14.2854 27.5884 14.3046 27.5132 14.3087 27.4363C14.3128 27.3595 14.3017 27.2826 14.2761 27.21C14.2505 27.1375 14.2108 27.0707 14.1594 27.0134C14.108 26.9562 14.0458 26.9096 13.9764 26.8765ZM16.551 25.0601C16.4938 24.9156 16.3816 24.7997 16.2391 24.7379C16.0965 24.6761 15.9352 24.6735 15.7907 24.7306C15.4684 24.8581 15.1607 25.0198 14.8728 25.2129C14.7438 25.2995 14.6544 25.4339 14.6244 25.5863C14.5944 25.7388 14.6262 25.897 14.7128 26.026C14.7994 26.155 14.9337 26.2444 15.0862 26.2744C15.2387 26.3044 15.3968 26.2726 15.5259 26.186C15.744 26.0396 15.9772 25.9171 16.2215 25.8204C16.293 25.7921 16.3583 25.75 16.4136 25.6965C16.4689 25.643 16.5131 25.5791 16.5437 25.5085C16.5743 25.4379 16.5907 25.362 16.5919 25.285C16.5932 25.2081 16.5793 25.1317 16.551 25.0601ZM13.8481 17.0349C14.0035 17.0349 14.1525 16.9732 14.2624 16.8633C14.3723 16.7534 14.434 16.6044 14.434 16.449C14.434 16.2936 14.3723 16.1445 14.2624 16.0347C14.1525 15.9248 14.0035 15.863 13.8481 15.863H12.9349C12.7795 15.863 12.6304 15.9248 12.5205 16.0347C12.4107 16.1445 12.3489 16.2936 12.3489 16.449C12.3489 16.6044 12.4107 16.7534 12.5205 16.8633C12.6304 16.9732 12.7795 17.0349 12.9349 17.0349H13.8481ZM14.3698 33.7531C14.6298 33.9818 14.9135 34.1822 15.216 34.3507C15.2833 34.3885 15.3573 34.4125 15.4339 34.4216C15.5105 34.4307 15.5881 34.4245 15.6623 34.4035C15.7365 34.3825 15.8058 34.3471 15.8663 34.2993C15.9267 34.2514 15.9772 34.1921 16.0147 34.1248C16.0522 34.0574 16.076 33.9833 16.0848 33.9067C16.0936 33.8301 16.0873 33.7525 16.066 33.6784C16.0448 33.6043 16.0091 33.535 15.9611 33.4747C15.9131 33.4144 15.8536 33.3642 15.7861 33.3269C15.5565 33.1989 15.3412 33.0468 15.1439 32.8732C15.0271 32.771 14.8746 32.7192 14.7198 32.7293C14.5649 32.7393 14.4204 32.8104 14.3179 32.9269C14.2154 33.0434 14.1633 33.1959 14.173 33.3507C14.1827 33.5056 14.2535 33.6503 14.3698 33.7531ZM9.79247 3.51562C9.86942 3.51563 9.94561 3.50048 10.0167 3.47104C10.0878 3.44159 10.1524 3.39843 10.2068 3.34402C10.2612 3.28961 10.3044 3.22501 10.3338 3.15392C10.3633 3.08283 10.3784 3.00664 10.3784 2.92969C10.3789 2.46365 10.5643 2.01685 10.8938 1.68732C11.2234 1.35778 11.6702 1.17241 12.1362 1.17188H13.0972L13.7841 2.54448C13.9293 2.83701 14.1535 3.08303 14.4313 3.25468C14.7091 3.42632 15.0295 3.51671 15.3561 3.51562H25.8695C26.1961 3.51671 26.5164 3.42632 26.7943 3.25468C27.0721 3.08303 27.2963 2.83701 27.4415 2.54448L28.1284 1.17188H29.1675C29.6335 1.17241 30.0803 1.35778 30.4098 1.68732C30.7394 2.01685 30.9247 2.46365 30.9253 2.92969L31.0807 39.4141C31.0807 39.5695 31.1424 39.7185 31.2523 39.8284C31.3622 39.9383 31.5112 40 31.6666 40C31.822 40 31.971 39.9383 32.0809 39.8284C32.1908 39.7185 32.2525 39.5695 32.2525 39.4141L32.0971 2.92969C32.0963 2.15295 31.7873 1.40828 31.2381 0.859051C30.6889 0.309817 29.9442 0.000874057 29.1675 0L12.1362 0C11.3595 0.000874057 10.6148 0.309817 10.0656 0.859051C9.51635 1.40828 9.20741 2.15295 9.20653 2.92969C9.20653 3.00664 9.22168 3.08283 9.25112 3.15392C9.28057 3.22501 9.32373 3.28961 9.37814 3.34402C9.43255 3.39843 9.49714 3.44159 9.56823 3.47104C9.63933 3.50048 9.71552 3.51563 9.79247 3.51562ZM26.818 1.17188L26.3935 2.02004C26.3451 2.11754 26.2704 2.19954 26.1777 2.25676C26.0851 2.31397 25.9784 2.3441 25.8695 2.34375H15.3561C15.2472 2.3441 15.1404 2.31397 15.0478 2.25676C14.9552 2.19954 14.8805 2.11754 14.8321 2.02004L14.4076 1.17188H26.818ZM17.6302 16.449C17.6302 16.372 17.6151 16.2958 17.5856 16.2247C17.5562 16.1536 17.513 16.0891 17.4586 16.0346C17.4042 15.9802 17.3396 15.9371 17.2685 15.9076C17.1974 15.8782 17.1212 15.863 17.0443 15.863H16.131C15.9756 15.863 15.8266 15.9248 15.7167 16.0347C15.6068 16.1445 15.5451 16.2936 15.5451 16.449C15.5451 16.6044 15.6068 16.7534 15.7167 16.8633C15.8266 16.9732 15.9756 17.0349 16.131 17.0349H17.0443C17.1212 17.0349 17.1974 17.0198 17.2685 16.9903C17.3396 16.9609 17.4042 16.9177 17.4586 16.8633C17.513 16.8089 17.5562 16.7443 17.5856 16.6732C17.6151 16.6021 17.6302 16.5259 17.6302 16.449ZM27.526 18.6798C27.4539 18.7066 27.3877 18.7473 27.3313 18.7997C27.275 18.852 27.2294 18.915 27.1974 18.9849C27.1653 19.0549 27.1474 19.1305 27.1445 19.2073C27.1417 19.2842 27.154 19.3609 27.1808 19.4331C27.2721 19.6792 27.3366 19.9345 27.3734 20.1944C27.3952 20.3483 27.4771 20.4872 27.6013 20.5806C27.7255 20.674 27.8817 20.7143 28.0356 20.6925C28.1894 20.6708 28.3283 20.5888 28.4218 20.4646C28.5152 20.3404 28.5554 20.1842 28.5337 20.0304C28.4852 19.6871 28.3999 19.35 28.2792 19.025C28.2525 18.9529 28.2118 18.8867 28.1594 18.8303C28.1071 18.7739 28.0441 18.7284 27.9742 18.6963C27.9042 18.6643 27.8286 18.6463 27.7517 18.6435C27.6748 18.6406 27.5981 18.653 27.526 18.6798ZM20.2612 21.7188C19.6818 21.7188 19.1154 21.8906 18.6336 22.2125C18.1518 22.5344 17.7763 22.992 17.5545 23.5273C17.3328 24.0626 17.2748 24.6517 17.3878 25.22C17.5009 25.7883 17.7799 26.3103 18.1896 26.72C18.5993 27.1298 19.1214 27.4088 19.6897 27.5218C20.258 27.6349 20.847 27.5769 21.3824 27.3551C21.9177 27.1334 22.3752 26.7579 22.6972 26.2761C23.0191 25.7943 23.1909 25.2279 23.1909 24.6484C23.19 23.8717 22.8811 23.127 22.3319 22.5778C21.7826 22.0286 21.0379 21.7196 20.2612 21.7188ZM20.2612 26.4062C19.9136 26.4062 19.5737 26.3032 19.2846 26.11C18.9956 25.9169 18.7703 25.6423 18.6372 25.3211C18.5042 24.9999 18.4694 24.6465 18.5372 24.3055C18.605 23.9645 18.7724 23.6513 19.0183 23.4055C19.2641 23.1596 19.5773 22.9922 19.9183 22.9244C20.2593 22.8566 20.6127 22.8914 20.9339 23.0244C21.2551 23.1575 21.5296 23.3828 21.7228 23.6718C21.9159 23.9609 22.019 24.3008 22.019 24.6484C22.0185 25.1145 21.8331 25.5613 21.5036 25.8908C21.174 26.2203 20.7273 26.4057 20.2612 26.4062ZM21.8012 33.7891H20.888C20.7326 33.7891 20.5835 33.8508 20.4736 33.9607C20.3638 34.0706 20.302 34.2196 20.302 34.375C20.302 34.5304 20.3638 34.6794 20.4736 34.7893C20.5835 34.8992 20.7326 34.9609 20.888 34.9609H21.8012C21.9566 34.9609 22.1056 34.8992 22.2155 34.7893C22.3254 34.6794 22.3871 34.5304 22.3871 34.375C22.3871 34.2196 22.3254 34.0706 22.2155 33.9607C22.1056 33.8508 21.9566 33.7891 21.8012 33.7891ZM9.79461 17.0349C9.86076 17.0347 9.92641 17.0233 9.98877 17.0012C10.0512 17.0234 10.1169 17.0348 10.1831 17.0349H10.6518C10.7722 17.0349 10.8896 16.9979 10.9881 16.9289C11.0867 16.8598 11.1615 16.7621 11.2026 16.649C11.2437 16.5359 11.2489 16.4129 11.2176 16.2968C11.1863 16.1806 11.12 16.0769 11.0277 15.9997C12.2992 14.586 14.5849 11.7206 14.5849 9.39071C14.5849 6.79733 12.4361 4.6875 9.79468 4.6875C9.17403 4.68498 8.55904 4.80551 7.98527 5.04213C7.41149 5.27875 6.89031 5.62677 6.45186 6.06606C5.57807 6.94692 5.06249 8.12086 5.0051 9.36027C4.93079 10.7914 5.65902 12.5014 7.16956 14.4429C7.84858 15.3134 8.59476 16.1293 9.40123 16.8832C9.5089 16.9809 9.64917 17.035 9.79461 17.0349ZM6.17545 9.42116C6.28096 7.39059 7.8369 5.85938 9.79468 5.85938C11.7898 5.85938 13.4131 7.44354 13.4131 9.39072C13.4131 10.4654 12.7301 11.942 11.438 13.6609C10.9203 14.3449 10.3663 15.0005 9.77813 15.6248C8.45092 14.3109 6.06742 11.4993 6.17545 9.42116ZM11.7456 9.375C11.7456 8.98871 11.631 8.61109 11.4164 8.2899C11.2018 7.96871 10.8968 7.71838 10.5399 7.57055C10.183 7.42272 9.7903 7.38404 9.41143 7.4594C9.03256 7.53477 8.68455 7.72078 8.4114 7.99393C8.13825 8.26708 7.95224 8.6151 7.87687 8.99396C7.80151 9.37283 7.84019 9.76554 7.98802 10.1224C8.13584 10.4793 8.38618 10.7844 8.70737 10.999C9.02856 11.2136 9.40618 11.3281 9.79247 11.3281C10.3103 11.3275 10.8067 11.1216 11.1729 10.7554C11.539 10.3893 11.745 9.89282 11.7456 9.375ZM9.01122 9.375C9.01122 9.22048 9.05704 9.06944 9.14288 8.94096C9.22873 8.81248 9.35074 8.71235 9.4935 8.65322C9.63625 8.59409 9.79334 8.57862 9.94488 8.60876C10.0964 8.63891 10.2356 8.71331 10.3449 8.82257C10.4542 8.93183 10.5286 9.07104 10.5587 9.22259C10.5889 9.37413 10.5734 9.53122 10.5142 9.67397C10.4551 9.81673 10.355 9.93874 10.2265 10.0246C10.098 10.1104 9.94699 10.1562 9.79247 10.1562C9.58534 10.156 9.38677 10.0736 9.24031 9.92716C9.09385 9.7807 9.01146 9.58213 9.01122 9.375ZM26.8687 17.7671C26.9172 17.7073 26.9534 17.6386 26.9752 17.5648C26.9971 17.491 27.0043 17.4137 26.9962 17.3372C26.9882 17.2606 26.9652 17.1864 26.9285 17.1188C26.8918 17.0512 26.8421 16.9914 26.7824 16.943C26.5131 16.7249 26.2214 16.5362 25.912 16.3801C25.7733 16.3102 25.6125 16.2983 25.465 16.347C25.3175 16.3957 25.1953 16.5009 25.1254 16.6396C25.0554 16.7783 25.0434 16.9391 25.092 17.0866C25.1406 17.2341 25.2457 17.3563 25.3844 17.4264C25.619 17.5448 25.8403 17.688 26.0446 17.8535C26.1653 17.9513 26.32 17.9972 26.4746 17.981C26.6291 17.9648 26.7709 17.8878 26.8687 17.7671ZM31.6666 38.6565L12.1362 38.8281C11.6702 38.8276 11.2234 38.6422 10.8938 38.3127C10.5643 37.9831 10.3789 37.5364 10.3784 37.0703V18.7927C10.3784 18.6373 10.3167 18.4883 10.2068 18.3784C10.0969 18.2685 9.94787 18.2068 9.79247 18.2068C9.63707 18.2068 9.48803 18.2685 9.37815 18.3784C9.26826 18.4883 9.20653 18.6373 9.20653 18.7927V37.0703C9.20741 37.847 9.51635 38.5917 10.0656 39.1409C10.6148 39.6902 11.3595 39.9991 12.1362 40L31.6666 39.8284C31.822 39.8284 31.971 39.7667 32.0809 39.6568C32.1908 39.5469 32.2525 39.3978 32.2525 39.2424C32.2525 39.087 32.1908 38.938 32.0809 38.8281C31.971 38.7182 31.822 38.6565 31.6666 38.6565ZM17.6918 34.9609H18.605C18.7604 34.9609 18.9095 34.8992 19.0193 34.7893C19.1292 34.6794 19.191 34.5304 19.191 34.375C19.191 34.2196 19.1292 34.0706 19.0193 33.9607C18.9095 33.8508 18.7604 33.7891 18.605 33.7891H17.6918C17.5364 33.7891 17.3874 33.8508 17.2775 33.9607C17.1676 34.0706 17.1059 34.2196 17.1059 34.375C17.1059 34.5304 17.1676 34.6794 17.2775 34.7893C17.3874 34.8992 17.5364 34.9609 17.6918 34.9609ZM26.8974 23.6298C26.9605 23.6738 27.0317 23.7049 27.1069 23.7214C27.182 23.7379 27.2597 23.7395 27.3355 23.7259C27.4112 23.7124 27.4836 23.6841 27.5484 23.6426C27.6132 23.6011 27.6692 23.5472 27.7131 23.484C27.9112 23.1996 28.0783 22.8948 28.2115 22.5748C28.2411 22.5038 28.2564 22.4276 28.2566 22.3506C28.2568 22.2736 28.2417 22.1974 28.2124 22.1262C28.1831 22.055 28.14 21.9903 28.0857 21.9358C28.0313 21.8813 27.9668 21.838 27.8957 21.8084C27.8246 21.7788 27.7484 21.7636 27.6714 21.7635C27.5944 21.7634 27.5182 21.7785 27.447 21.8079C27.3759 21.8372 27.3112 21.8804 27.2567 21.9348C27.2022 21.9892 27.159 22.0538 27.1295 22.1249C27.0286 22.3674 26.9019 22.5985 26.7517 22.814C26.7077 22.8772 26.6766 22.9483 26.6601 23.0235C26.6436 23.0987 26.6421 23.1763 26.6556 23.2521C26.6691 23.3278 26.6975 23.4002 26.7389 23.465C26.7804 23.5298 26.8343 23.5858 26.8974 23.6298ZM24.0226 16.449C24.0226 16.372 24.0074 16.2958 23.978 16.2247C23.9486 16.1536 23.9054 16.0891 23.851 16.0346C23.7966 15.9802 23.732 15.9371 23.6609 15.9076C23.5898 15.8782 23.5136 15.863 23.4366 15.863H22.5235C22.3681 15.863 22.219 15.9248 22.1092 16.0347C21.9993 16.1445 21.9375 16.2936 21.9375 16.449C21.9375 16.6044 21.9993 16.7534 22.1092 16.8633C22.219 16.9732 22.3681 17.0349 22.5235 17.0349H23.4366C23.5136 17.0349 23.5898 17.0198 23.6609 16.9903C23.732 16.9609 23.7966 16.9177 23.851 16.8633C23.9054 16.8089 23.9486 16.7443 23.978 16.6732C24.0074 16.6021 24.0226 16.5259 24.0226 16.449ZM20.2405 17.0349C20.3959 17.0349 20.5449 16.9732 20.6548 16.8633C20.7647 16.7534 20.8264 16.6044 20.8264 16.449C20.8264 16.2936 20.7647 16.1445 20.6548 16.0347C20.5449 15.9248 20.3959 15.863 20.2405 15.863H19.3273C19.1719 15.863 19.0229 15.9248 18.913 16.0347C18.8031 16.1445 18.7414 16.2936 18.7414 16.449C18.7414 16.6044 18.8031 16.7534 18.913 16.8633C19.0229 16.9732 19.1719 17.0349 19.3273 17.0349H20.2405ZM25.4619 10.4297V8.32031C25.4615 7.97855 25.3255 7.65091 25.0839 7.40925C24.8422 7.16759 24.5146 7.03165 24.1728 7.03125H17.1309C16.7891 7.03165 16.4615 7.16759 16.2198 7.40925C15.9782 7.65091 15.8422 7.97855 15.8418 8.32031V10.4297C15.8422 10.7714 15.9782 11.0991 16.2198 11.3408C16.4615 11.5824 16.7891 11.7184 17.1309 11.7188H24.1728C24.5146 11.7184 24.8422 11.5824 25.0839 11.3408C25.3255 11.0991 25.4615 10.7714 25.4619 10.4297ZM24.29 10.4297C24.29 10.4608 24.2776 10.4905 24.2556 10.5125C24.2337 10.5345 24.2039 10.5468 24.1728 10.5469H17.1309C17.0998 10.5468 17.07 10.5345 17.048 10.5125C17.0261 10.4905 17.0137 10.4608 17.0137 10.4297V8.32031C17.0137 8.28924 17.0261 8.25946 17.048 8.23749C17.07 8.21552 17.0998 8.20316 17.1309 8.20312H24.1728C24.2039 8.20316 24.2337 8.21552 24.2556 8.23749C24.2776 8.25946 24.29 8.28924 24.29 8.32031V10.4297ZM24.0842 34.9609H24.9974C25.1528 34.9609 25.3018 34.8992 25.4117 34.7893C25.5216 34.6794 25.5833 34.5304 25.5833 34.375C25.5833 34.2196 25.5216 34.0706 25.4117 33.9607C25.3018 33.8508 25.1528 33.7891 24.9974 33.7891H24.0842C23.9288 33.7891 23.7798 33.8508 23.6699 33.9607C23.56 34.0706 23.4983 34.2196 23.4983 34.375C23.4983 34.5304 23.56 34.6794 23.6699 34.7893C23.7798 34.8992 23.9288 34.9609 24.0842 34.9609ZM26.0344 24.3513C25.9698 24.2099 25.8517 24.1 25.7061 24.0457C25.5605 23.9914 25.3993 23.9972 25.2579 24.0617C25.0192 24.1708 24.7693 24.2538 24.5128 24.3093C24.4376 24.3256 24.3663 24.3565 24.303 24.4003C24.2398 24.4441 24.1857 24.4999 24.1441 24.5646C24.1024 24.6293 24.0738 24.7016 24.0601 24.7773C24.0463 24.853 24.0476 24.9307 24.0639 25.0059C24.0801 25.0811 24.111 25.1524 24.1548 25.2156C24.1986 25.2789 24.2545 25.3329 24.3192 25.3746C24.3838 25.4163 24.4561 25.4448 24.5318 25.4586C24.6075 25.4723 24.6852 25.471 24.7604 25.4548C25.0993 25.3814 25.4294 25.2718 25.7448 25.1277C25.8862 25.0631 25.9961 24.9451 26.0504 24.7995C26.1047 24.6538 26.0989 24.4926 26.0344 24.3513Z" fill="white"/>
<path d="M13.2712 29.9546C13.1166 29.97 12.9744 30.0462 12.876 30.1664C12.7775 30.2867 12.7309 30.4411 12.7463 30.5957C12.7806 30.9407 12.8519 31.2811 12.959 31.6109C13.007 31.7587 13.1118 31.8813 13.2503 31.9518C13.3888 32.0224 13.5496 32.035 13.6974 31.9869C13.8452 31.9389 13.9679 31.8341 14.0384 31.6956C14.1089 31.5571 14.1215 31.3963 14.0735 31.2485C13.9924 30.9987 13.9383 30.7409 13.9123 30.4796C13.9048 30.403 13.8823 30.3286 13.846 30.2607C13.8096 30.1929 13.7603 30.1328 13.7007 30.0841C13.6412 30.0353 13.5726 29.9988 13.4989 29.9765C13.4252 29.9543 13.3478 29.9469 13.2712 29.9546ZM13.9764 26.8765C13.9069 26.8432 13.8317 26.824 13.7548 26.8199C13.678 26.8157 13.6011 26.8268 13.5286 26.8524C13.456 26.878 13.3892 26.9177 13.332 26.9691C13.2747 27.0205 13.2282 27.0828 13.195 27.1522C13.0455 27.465 12.93 27.793 12.8506 28.1305C12.833 28.2054 12.8304 28.2831 12.8428 28.359C12.8552 28.4349 12.8825 28.5077 12.923 28.5731C12.9635 28.6385 13.0165 28.6953 13.079 28.7402C13.1415 28.7851 13.2122 28.8173 13.2871 28.8349C13.362 28.8525 13.4397 28.8552 13.5156 28.8428C13.5916 28.8304 13.6643 28.8031 13.7297 28.7626C13.7951 28.722 13.8519 28.669 13.8968 28.6065C13.9418 28.5441 13.9739 28.4734 13.9915 28.3984C14.0516 28.1429 14.139 27.8946 14.2522 27.6579C14.2854 27.5884 14.3046 27.5132 14.3087 27.4363C14.3128 27.3595 14.3017 27.2826 14.2761 27.21C14.2505 27.1375 14.2108 27.0707 14.1594 27.0134C14.108 26.9562 14.0458 26.9096 13.9764 26.8765ZM16.551 25.0601C16.4938 24.9156 16.3816 24.7997 16.2391 24.7379C16.0965 24.6761 15.9352 24.6735 15.7907 24.7306C15.4684 24.8581 15.1607 25.0198 14.8728 25.2129C14.7438 25.2995 14.6544 25.4339 14.6244 25.5863C14.5944 25.7388 14.6262 25.897 14.7128 26.026C14.7994 26.155 14.9337 26.2444 15.0862 26.2744C15.2387 26.3044 15.3968 26.2726 15.5259 26.186C15.744 26.0396 15.9772 25.9171 16.2215 25.8204C16.293 25.7921 16.3583 25.75 16.4136 25.6965C16.4689 25.643 16.5131 25.5791 16.5437 25.5085C16.5743 25.4379 16.5907 25.362 16.5919 25.285C16.5932 25.2081 16.5793 25.1317 16.551 25.0601ZM13.8481 17.0349C14.0035 17.0349 14.1525 16.9732 14.2624 16.8633C14.3723 16.7534 14.434 16.6044 14.434 16.449C14.434 16.2936 14.3723 16.1445 14.2624 16.0347C14.1525 15.9248 14.0035 15.863 13.8481 15.863H12.9349C12.7795 15.863 12.6304 15.9248 12.5205 16.0347C12.4107 16.1445 12.3489 16.2936 12.3489 16.449C12.3489 16.6044 12.4107 16.7534 12.5205 16.8633C12.6304 16.9732 12.7795 17.0349 12.9349 17.0349H13.8481ZM14.3698 33.7531C14.6298 33.9818 14.9135 34.1822 15.216 34.3507C15.2833 34.3885 15.3573 34.4125 15.4339 34.4216C15.5105 34.4307 15.5881 34.4245 15.6623 34.4035C15.7365 34.3825 15.8058 34.3471 15.8663 34.2993C15.9267 34.2514 15.9772 34.1921 16.0147 34.1248C16.0522 34.0574 16.076 33.9833 16.0848 33.9067C16.0936 33.8301 16.0873 33.7525 16.066 33.6784C16.0448 33.6043 16.0091 33.535 15.9611 33.4747C15.9131 33.4144 15.8536 33.3642 15.7861 33.3269C15.5565 33.1989 15.3412 33.0468 15.1439 32.8732C15.0271 32.771 14.8746 32.7192 14.7198 32.7293C14.5649 32.7393 14.4204 32.8104 14.3179 32.9269C14.2154 33.0434 14.1633 33.1959 14.173 33.3507C14.1827 33.5056 14.2535 33.6503 14.3698 33.7531ZM9.79247 3.51562C9.86942 3.51563 9.94561 3.50048 10.0167 3.47104C10.0878 3.44159 10.1524 3.39843 10.2068 3.34402C10.2612 3.28961 10.3044 3.22501 10.3338 3.15392C10.3633 3.08283 10.3784 3.00664 10.3784 2.92969C10.3789 2.46365 10.5643 2.01685 10.8938 1.68732C11.2234 1.35778 11.6702 1.17241 12.1362 1.17188H13.0972L13.7841 2.54448C13.9293 2.83701 14.1535 3.08303 14.4313 3.25468C14.7091 3.42632 15.0295 3.51671 15.3561 3.51562H25.8695C26.1961 3.51671 26.5164 3.42632 26.7943 3.25468C27.0721 3.08303 27.2963 2.83701 27.4415 2.54448L28.1284 1.17188H29.1675C29.6335 1.17241 30.0803 1.35778 30.4098 1.68732C30.7394 2.01685 30.9247 2.46365 30.9253 2.92969L31.0807 39.4141C31.0807 39.5695 31.1424 39.7185 31.2523 39.8284C31.3622 39.9383 31.5112 40 31.6666 40C31.822 40 31.971 39.9383 32.0809 39.8284C32.1908 39.7185 32.2525 39.5695 32.2525 39.4141L32.0971 2.92969C32.0963 2.15295 31.7873 1.40828 31.2381 0.859051C30.6889 0.309817 29.9442 0.000874057 29.1675 0L12.1362 0C11.3595 0.000874057 10.6148 0.309817 10.0656 0.859051C9.51635 1.40828 9.20741 2.15295 9.20653 2.92969C9.20653 3.00664 9.22168 3.08283 9.25112 3.15392C9.28057 3.22501 9.32373 3.28961 9.37814 3.34402C9.43255 3.39843 9.49714 3.44159 9.56823 3.47104C9.63933 3.50048 9.71552 3.51563 9.79247 3.51562ZM26.818 1.17188L26.3935 2.02004C26.3451 2.11754 26.2704 2.19954 26.1777 2.25676C26.0851 2.31397 25.9784 2.3441 25.8695 2.34375H15.3561C15.2472 2.3441 15.1404 2.31397 15.0478 2.25676C14.9552 2.19954 14.8805 2.11754 14.8321 2.02004L14.4076 1.17188H26.818ZM17.6302 16.449C17.6302 16.372 17.6151 16.2958 17.5856 16.2247C17.5562 16.1536 17.513 16.0891 17.4586 16.0346C17.4042 15.9802 17.3396 15.9371 17.2685 15.9076C17.1974 15.8782 17.1212 15.863 17.0443 15.863H16.131C15.9756 15.863 15.8266 15.9248 15.7167 16.0347C15.6068 16.1445 15.5451 16.2936 15.5451 16.449C15.5451 16.6044 15.6068 16.7534 15.7167 16.8633C15.8266 16.9732 15.9756 17.0349 16.131 17.0349H17.0443C17.1212 17.0349 17.1974 17.0198 17.2685 16.9903C17.3396 16.9609 17.4042 16.9177 17.4586 16.8633C17.513 16.8089 17.5562 16.7443 17.5856 16.6732C17.6151 16.6021 17.6302 16.5259 17.6302 16.449ZM27.526 18.6798C27.4539 18.7066 27.3877 18.7473 27.3313 18.7997C27.275 18.852 27.2294 18.915 27.1974 18.9849C27.1653 19.0549 27.1474 19.1305 27.1445 19.2073C27.1417 19.2842 27.154 19.3609 27.1808 19.4331C27.2721 19.6792 27.3366 19.9345 27.3734 20.1944C27.3952 20.3483 27.4771 20.4872 27.6013 20.5806C27.7255 20.674 27.8817 20.7143 28.0356 20.6925C28.1894 20.6708 28.3283 20.5888 28.4218 20.4646C28.5152 20.3404 28.5554 20.1842 28.5337 20.0304C28.4852 19.6871 28.3999 19.35 28.2792 19.025C28.2525 18.9529 28.2118 18.8867 28.1594 18.8303C28.1071 18.7739 28.0441 18.7284 27.9742 18.6963C27.9042 18.6643 27.8286 18.6463 27.7517 18.6435C27.6748 18.6406 27.5981 18.653 27.526 18.6798ZM20.2612 21.7188C19.6818 21.7188 19.1154 21.8906 18.6336 22.2125C18.1518 22.5344 17.7763 22.992 17.5545 23.5273C17.3328 24.0626 17.2748 24.6517 17.3878 25.22C17.5009 25.7883 17.7799 26.3103 18.1896 26.72C18.5993 27.1298 19.1214 27.4088 19.6897 27.5218C20.258 27.6349 20.847 27.5769 21.3824 27.3551C21.9177 27.1334 22.3752 26.7579 22.6972 26.2761C23.0191 25.7943 23.1909 25.2279 23.1909 24.6484C23.19 23.8717 22.8811 23.127 22.3319 22.5778C21.7826 22.0286 21.0379 21.7196 20.2612 21.7188ZM20.2612 26.4062C19.9136 26.4062 19.5737 26.3032 19.2846 26.11C18.9956 25.9169 18.7703 25.6423 18.6372 25.3211C18.5042 24.9999 18.4694 24.6465 18.5372 24.3055C18.605 23.9645 18.7724 23.6513 19.0183 23.4055C19.2641 23.1596 19.5773 22.9922 19.9183 22.9244C20.2593 22.8566 20.6127 22.8914 20.9339 23.0244C21.2551 23.1575 21.5296 23.3828 21.7228 23.6718C21.9159 23.9609 22.019 24.3008 22.019 24.6484C22.0185 25.1145 21.8331 25.5613 21.5036 25.8908C21.174 26.2203 20.7273 26.4057 20.2612 26.4062ZM21.8012 33.7891H20.888C20.7326 33.7891 20.5835 33.8508 20.4736 33.9607C20.3638 34.0706 20.302 34.2196 20.302 34.375C20.302 34.5304 20.3638 34.6794 20.4736 34.7893C20.5835 34.8992 20.7326 34.9609 20.888 34.9609H21.8012C21.9566 34.9609 22.1056 34.8992 22.2155 34.7893C22.3254 34.6794 22.3871 34.5304 22.3871 34.375C22.3871 34.2196 22.3254 34.0706 22.2155 33.9607C22.1056 33.8508 21.9566 33.7891 21.8012 33.7891ZM9.79461 17.0349C9.86076 17.0347 9.92641 17.0233 9.98877 17.0012C10.0512 17.0234 10.1169 17.0348 10.1831 17.0349H10.6518C10.7722 17.0349 10.8896 16.9979 10.9881 16.9289C11.0867 16.8598 11.1615 16.7621 11.2026 16.649C11.2437 16.5359 11.2489 16.4129 11.2176 16.2968C11.1863 16.1806 11.12 16.0769 11.0277 15.9997C12.2992 14.586 14.5849 11.7206 14.5849 9.39071C14.5849 6.79733 12.4361 4.6875 9.79468 4.6875C9.17403 4.68498 8.55904 4.80551 7.98527 5.04213C7.41149 5.27875 6.89031 5.62677 6.45186 6.06606C5.57807 6.94692 5.06249 8.12086 5.0051 9.36027C4.93079 10.7914 5.65902 12.5014 7.16956 14.4429C7.84858 15.3134 8.59476 16.1293 9.40123 16.8832C9.5089 16.9809 9.64917 17.035 9.79461 17.0349ZM6.17545 9.42116C6.28096 7.39059 7.8369 5.85938 9.79468 5.85938C11.7898 5.85938 13.4131 7.44354 13.4131 9.39072C13.4131 10.4654 12.7301 11.942 11.438 13.6609C10.9203 14.3449 10.3663 15.0005 9.77813 15.6248C8.45092 14.3109 6.06742 11.4993 6.17545 9.42116ZM11.7456 9.375C11.7456 8.98871 11.631 8.61109 11.4164 8.2899C11.2018 7.96871 10.8968 7.71838 10.5399 7.57055C10.183 7.42272 9.7903 7.38404 9.41143 7.4594C9.03256 7.53477 8.68455 7.72078 8.4114 7.99393C8.13825 8.26708 7.95224 8.6151 7.87687 8.99396C7.80151 9.37283 7.84019 9.76554 7.98802 10.1224C8.13584 10.4793 8.38618 10.7844 8.70737 10.999C9.02856 11.2136 9.40618 11.3281 9.79247 11.3281C10.3103 11.3275 10.8067 11.1216 11.1729 10.7554C11.539 10.3893 11.745 9.89282 11.7456 9.375ZM9.01122 9.375C9.01122 9.22048 9.05704 9.06944 9.14288 8.94096C9.22873 8.81248 9.35074 8.71235 9.4935 8.65322C9.63625 8.59409 9.79334 8.57862 9.94488 8.60876C10.0964 8.63891 10.2356 8.71331 10.3449 8.82257C10.4542 8.93183 10.5286 9.07104 10.5587 9.22259C10.5889 9.37413 10.5734 9.53122 10.5142 9.67397C10.4551 9.81673 10.355 9.93874 10.2265 10.0246C10.098 10.1104 9.94699 10.1562 9.79247 10.1562C9.58534 10.156 9.38677 10.0736 9.24031 9.92716C9.09385 9.7807 9.01146 9.58213 9.01122 9.375ZM26.8687 17.7671C26.9172 17.7073 26.9534 17.6386 26.9752 17.5648C26.9971 17.491 27.0043 17.4137 26.9962 17.3372C26.9882 17.2606 26.9652 17.1864 26.9285 17.1188C26.8918 17.0512 26.8421 16.9914 26.7824 16.943C26.5131 16.7249 26.2214 16.5362 25.912 16.3801C25.7733 16.3102 25.6125 16.2983 25.465 16.347C25.3175 16.3957 25.1953 16.5009 25.1254 16.6396C25.0554 16.7783 25.0434 16.9391 25.092 17.0866C25.1406 17.2341 25.2457 17.3563 25.3844 17.4264C25.619 17.5448 25.8403 17.688 26.0446 17.8535C26.1653 17.9513 26.32 17.9972 26.4746 17.981C26.6291 17.9648 26.7709 17.8878 26.8687 17.7671ZM31.6666 38.6565L12.1362 38.8281C11.6702 38.8276 11.2234 38.6422 10.8938 38.3127C10.5643 37.9831 10.3789 37.5364 10.3784 37.0703V18.7927C10.3784 18.6373 10.3167 18.4883 10.2068 18.3784C10.0969 18.2685 9.94787 18.2068 9.79247 18.2068C9.63707 18.2068 9.48803 18.2685 9.37815 18.3784C9.26826 18.4883 9.20653 18.6373 9.20653 18.7927V37.0703C9.20741 37.847 9.51635 38.5917 10.0656 39.1409C10.6148 39.6902 11.3595 39.9991 12.1362 40L31.6666 39.8284C31.822 39.8284 31.971 39.7667 32.0809 39.6568C32.1908 39.5469 32.2525 39.3978 32.2525 39.2424C32.2525 39.087 32.1908 38.938 32.0809 38.8281C31.971 38.7182 31.822 38.6565 31.6666 38.6565ZM17.6918 34.9609H18.605C18.7604 34.9609 18.9095 34.8992 19.0193 34.7893C19.1292 34.6794 19.191 34.5304 19.191 34.375C19.191 34.2196 19.1292 34.0706 19.0193 33.9607C18.9095 33.8508 18.7604 33.7891 18.605 33.7891H17.6918C17.5364 33.7891 17.3874 33.8508 17.2775 33.9607C17.1676 34.0706 17.1059 34.2196 17.1059 34.375C17.1059 34.5304 17.1676 34.6794 17.2775 34.7893C17.3874 34.8992 17.5364 34.9609 17.6918 34.9609ZM26.8974 23.6298C26.9605 23.6738 27.0317 23.7049 27.1069 23.7214C27.182 23.7379 27.2597 23.7395 27.3355 23.7259C27.4112 23.7124 27.4836 23.6841 27.5484 23.6426C27.6132 23.6011 27.6692 23.5472 27.7131 23.484C27.9112 23.1996 28.0783 22.8948 28.2115 22.5748C28.2411 22.5038 28.2564 22.4276 28.2566 22.3506C28.2568 22.2736 28.2417 22.1974 28.2124 22.1262C28.1831 22.055 28.14 21.9903 28.0857 21.9358C28.0313 21.8813 27.9668 21.838 27.8957 21.8084C27.8246 21.7788 27.7484 21.7636 27.6714 21.7635C27.5944 21.7634 27.5182 21.7785 27.447 21.8079C27.3759 21.8372 27.3112 21.8804 27.2567 21.9348C27.2022 21.9892 27.159 22.0538 27.1295 22.1249C27.0286 22.3674 26.9019 22.5985 26.7517 22.814C26.7077 22.8772 26.6766 22.9483 26.6601 23.0235C26.6436 23.0987 26.6421 23.1763 26.6556 23.2521C26.6691 23.3278 26.6975 23.4002 26.7389 23.465C26.7804 23.5298 26.8343 23.5858 26.8974 23.6298ZM24.0226 16.449C24.0226 16.372 24.0074 16.2958 23.978 16.2247C23.9486 16.1536 23.9054 16.0891 23.851 16.0346C23.7966 15.9802 23.732 15.9371 23.6609 15.9076C23.5898 15.8782 23.5136 15.863 23.4366 15.863H22.5235C22.3681 15.863 22.219 15.9248 22.1092 16.0347C21.9993 16.1445 21.9375 16.2936 21.9375 16.449C21.9375 16.6044 21.9993 16.7534 22.1092 16.8633C22.219 16.9732 22.3681 17.0349 22.5235 17.0349H23.4366C23.5136 17.0349 23.5898 17.0198 23.6609 16.9903C23.732 16.9609 23.7966 16.9177 23.851 16.8633C23.9054 16.8089 23.9486 16.7443 23.978 16.6732C24.0074 16.6021 24.0226 16.5259 24.0226 16.449ZM20.2405 17.0349C20.3959 17.0349 20.5449 16.9732 20.6548 16.8633C20.7647 16.7534 20.8264 16.6044 20.8264 16.449C20.8264 16.2936 20.7647 16.1445 20.6548 16.0347C20.5449 15.9248 20.3959 15.863 20.2405 15.863H19.3273C19.1719 15.863 19.0229 15.9248 18.913 16.0347C18.8031 16.1445 18.7414 16.2936 18.7414 16.449C18.7414 16.6044 18.8031 16.7534 18.913 16.8633C19.0229 16.9732 19.1719 17.0349 19.3273 17.0349H20.2405ZM25.4619 10.4297V8.32031C25.4615 7.97855 25.3255 7.65091 25.0839 7.40925C24.8422 7.16759 24.5146 7.03165 24.1728 7.03125H17.1309C16.7891 7.03165 16.4615 7.16759 16.2198 7.40925C15.9782 7.65091 15.8422 7.97855 15.8418 8.32031V10.4297C15.8422 10.7714 15.9782 11.0991 16.2198 11.3408C16.4615 11.5824 16.7891 11.7184 17.1309 11.7188H24.1728C24.5146 11.7184 24.8422 11.5824 25.0839 11.3408C25.3255 11.0991 25.4615 10.7714 25.4619 10.4297ZM24.29 10.4297C24.29 10.4608 24.2776 10.4905 24.2556 10.5125C24.2337 10.5345 24.2039 10.5468 24.1728 10.5469H17.1309C17.0998 10.5468 17.07 10.5345 17.048 10.5125C17.0261 10.4905 17.0137 10.4608 17.0137 10.4297V8.32031C17.0137 8.28924 17.0261 8.25946 17.048 8.23749C17.07 8.21552 17.0998 8.20316 17.1309 8.20312H24.1728C24.2039 8.20316 24.2337 8.21552 24.2556 8.23749C24.2776 8.25946 24.29 8.28924 24.29 8.32031V10.4297ZM24.0842 34.9609H24.9974C25.1528 34.9609 25.3018 34.8992 25.4117 34.7893C25.5216 34.6794 25.5833 34.5304 25.5833 34.375C25.5833 34.2196 25.5216 34.0706 25.4117 33.9607C25.3018 33.8508 25.1528 33.7891 24.9974 33.7891H24.0842C23.9288 33.7891 23.7798 33.8508 23.6699 33.9607C23.56 34.0706 23.4983 34.2196 23.4983 34.375C23.4983 34.5304 23.56 34.6794 23.6699 34.7893C23.7798 34.8992 23.9288 34.9609 24.0842 34.9609ZM26.0344 24.3513C25.9698 24.2099 25.8517 24.1 25.7061 24.0457C25.5605 23.9914 25.3993 23.9972 25.2579 24.0617C25.0192 24.1708 24.7693 24.2538 24.5128 24.3093C24.4376 24.3256 24.3663 24.3565 24.303 24.4003C24.2398 24.4441 24.1857 24.4999 24.1441 24.5646C24.1024 24.6293 24.0738 24.7016 24.0601 24.7773C24.0463 24.853 24.0476 24.9307 24.0639 25.0059C24.0801 25.0811 24.111 25.1524 24.1548 25.2156C24.1986 25.2789 24.2545 25.3329 24.3192 25.3746C24.3838 25.4163 24.4561 25.4448 24.5318 25.4586C24.6075 25.4723 24.6852 25.471 24.7604 25.4548C25.0993 25.3814 25.4294 25.2718 25.7448 25.1277C25.8862 25.0631 25.9961 24.9451 26.0504 24.7995C26.1047 24.6538 26.0989 24.4926 26.0344 24.3513Z" stroke="white" stroke-width="0.5" mask="url(#path-1-outside-1_0_99)"/>
</g>
<defs>
<clipPath id="clip0_0_99">
<rect width="40" height="40" fill="white"/>
</clipPath>
</defs>
</svg>
