<svg width="40" height="40" viewBox="0 0 40 40" fill="none" xmlns="http://www.w3.org/2000/svg">
<mask id="path-1-outside-1_0_109" maskUnits="userSpaceOnUse" x="1.5" y="1.52374" width="37" height="37" fill="black">
<rect fill="white" x="1.5" y="1.52374" width="37" height="37"/>
<path fill-rule="evenodd" clip-rule="evenodd" d="M33.6892 16.2104C32.922 16.1127 32.1853 15.8379 31.5385 15.4046C30.7354 14.8666 30.1054 14.1074 29.7249 13.2188C28.8895 11.3235 27.5184 9.71366 25.7802 8.58735C24.0419 7.46104 22.0124 6.86735 19.9411 6.8793C17.8699 6.89126 15.8474 7.50833 14.1222 8.65462C12.3971 9.80092 11.0446 11.4265 10.2312 13.3313C9.88022 14.1862 9.28529 14.919 8.5206 15.438C7.86302 15.8844 7.10494 16.1557 6.3178 16.2297C6.27506 16.6517 6.25243 17.0756 6.25 17.5V21.25H6.32938C6.4401 20.8212 6.66377 20.4257 6.98223 20.1072C7.45107 19.6384 8.08696 19.375 8.75 19.375C9.41304 19.375 10.0489 19.6384 10.5178 20.1072C10.9866 20.5761 11.25 21.212 11.25 21.875V30.625C11.25 31.288 10.9866 31.9239 10.5178 32.3928C10.0489 32.8616 9.41304 33.125 8.75 33.125C8.08696 33.125 7.45107 32.8616 6.98223 32.3928C6.66377 32.0743 6.4401 31.6788 6.32938 31.25H5C4.33696 31.25 3.70107 30.9866 3.23223 30.5178C2.76339 30.0489 2.5 29.413 2.5 28.75V23.75C2.5 23.087 2.76339 22.4511 3.23223 21.9822C3.70107 21.5134 4.33696 21.25 5 21.25V17.5C5.00014 16.8754 5.04011 16.2514 5.11967 15.6319C5.11935 15.6025 5.1211 15.5731 5.12494 15.5438C5.60479 11.9403 7.37694 8.63369 10.1119 6.23881C12.8468 3.84392 16.3584 2.52374 19.9937 2.52374C23.629 2.52374 27.1406 3.84392 29.8755 6.23881C32.5716 8.59966 34.332 11.8465 34.8412 15.3903C34.8609 15.4395 34.8744 15.491 34.8813 15.5438C34.9643 16.1925 35.004 16.846 35 17.5V21.25C35.663 21.25 36.2989 21.5134 36.7678 21.9822C37.2366 22.4511 37.5 23.087 37.5 23.75V28.75C37.5 29.413 37.2366 30.0489 36.7678 30.5178C36.4493 30.8362 36.0538 31.0599 35.625 31.1706V31.875C35.625 33.0353 35.1641 34.1481 34.3436 34.9686C33.5231 35.7891 32.4103 36.25 31.25 36.25H23.0178C22.9254 36.5112 22.7754 36.7512 22.5758 36.9508C22.2242 37.3025 21.7473 37.5 21.25 37.5H18.75C18.2527 37.5 17.7758 37.3025 17.4242 36.9508C17.0725 36.5992 16.875 36.1223 16.875 35.625C16.875 35.1277 17.0725 34.6508 17.4242 34.2992C17.7758 33.9475 18.2527 33.75 18.75 33.75H21.25C21.7473 33.75 22.2242 33.9475 22.5758 34.2992C22.7755 34.4988 22.9254 34.7388 23.0178 35H31.25C32.0788 35 32.8737 34.6708 33.4597 34.0847C34.0458 33.4987 34.375 32.7038 34.375 31.875V31.25H33.6706C33.5599 31.6788 33.3362 32.0743 33.0178 32.3928C32.5489 32.8616 31.913 33.125 31.25 33.125C30.587 33.125 29.9511 32.8616 29.4822 32.3928C29.0134 31.9239 28.75 31.288 28.75 30.625V21.875C28.75 21.212 29.0134 20.5761 29.4822 20.1072C29.9511 19.6384 30.587 19.375 31.25 19.375C31.913 19.375 32.5489 19.6384 33.0178 20.1072C33.3362 20.4257 33.5599 20.8212 33.6706 21.25H33.75V17.5C33.7505 17.0693 33.7302 16.639 33.6892 16.2104ZM11.2243 6.91374C13.6915 4.8688 16.7954 3.74979 19.9999 3.75002C21.8105 3.73946 23.605 4.08935 25.2789 4.77931C26.9528 5.46927 28.4727 6.4855 29.7499 7.76877C31.6953 9.71745 33.0142 12.2029 33.5374 14.9063C32.9555 14.7713 32.4135 14.5012 31.9553 14.118C31.4971 13.7347 31.1356 13.2489 30.8999 12.7C30.2964 11.3521 29.4488 10.1273 28.3999 9.08752C27.0256 7.71466 25.3356 6.69989 23.4778 6.13219C21.6201 5.56448 19.6515 5.46118 17.7445 5.83134C15.8376 6.2015 14.0506 7.03382 12.5402 8.25532C11.0297 9.47682 9.84204 11.0502 9.08119 12.8375C8.85906 13.3779 8.50545 13.8541 8.05248 14.223C7.59951 14.592 7.06154 14.8419 6.48744 14.95C7.08172 11.8011 8.75717 8.95868 11.2243 6.91374ZM33.75 22.5H34.3712L34.375 22.5L34.3788 22.5H35C35.3315 22.5 35.6495 22.6317 35.8839 22.8661C36.1183 23.1005 36.25 23.4185 36.25 23.75V28.75C36.25 29.0815 36.1183 29.3995 35.8839 29.6339C35.6495 29.8683 35.3315 30 35 30H33.75V22.5ZM5 22.5H5.62122L5.625 22.5L5.62878 22.5H6.25V30H5C4.66848 30 4.35054 29.8683 4.11612 29.6339C3.8817 29.3995 3.75 29.0815 3.75 28.75V23.75C3.75 23.4185 3.8817 23.1005 4.11612 22.8661C4.35054 22.6317 4.66848 22.5 5 22.5ZM7.5 30.625V21.875C7.5 21.5435 7.6317 21.2255 7.86612 20.9911C8.10054 20.7567 8.41848 20.625 8.75 20.625C9.08152 20.625 9.39946 20.7567 9.63388 20.9911C9.8683 21.2255 10 21.5435 10 21.875V30.625C10 30.9565 9.8683 31.2745 9.63388 31.5089C9.39946 31.7433 9.08152 31.875 8.75 31.875C8.41848 31.875 8.10054 31.7433 7.86612 31.5089C7.6317 31.2745 7.5 30.9565 7.5 30.625ZM32.5 30.625V21.875C32.5 21.5435 32.3683 21.2255 32.1339 20.9911C31.8995 20.7567 31.5815 20.625 31.25 20.625C30.9185 20.625 30.6005 20.7567 30.3661 20.9911C30.1317 21.2255 30 21.5435 30 21.875V30.625C30 30.9565 30.1317 31.2745 30.3661 31.5089C30.6005 31.7433 30.9185 31.875 31.25 31.875C31.5815 31.875 31.8995 31.7433 32.1339 31.5089C32.3683 31.2745 32.5 30.9565 32.5 30.625ZM18.3081 35.1831C18.4253 35.0658 18.5842 35 18.75 35H21.25C21.4158 35 21.5747 35.0658 21.6919 35.1831C21.8092 35.3003 21.875 35.4592 21.875 35.625C21.875 35.7908 21.8092 35.9497 21.6919 36.0669C21.5747 36.1842 21.4158 36.25 21.25 36.25H18.75C18.5842 36.25 18.4253 36.1842 18.3081 36.0669C18.1908 35.9497 18.125 35.7908 18.125 35.625C18.125 35.4592 18.1908 35.3003 18.3081 35.1831ZM18.75 20H15.625C15.4593 20 15.3003 19.9342 15.1831 19.8169C15.0659 19.6997 15 19.5408 15 19.375V18.75C14.9995 18.6677 15.0153 18.5862 15.0464 18.5101C15.0775 18.4339 15.1233 18.3647 15.1813 18.3063L17.9188 15.5688C18.0162 15.4709 18.0824 15.3464 18.1093 15.2109C18.1361 15.0754 18.1222 14.9351 18.0694 14.8074C18.0166 14.6798 17.9273 14.5707 17.8126 14.4937C17.698 14.4168 17.5631 14.3755 17.425 14.375H16.95C16.7644 14.375 16.5863 14.4488 16.455 14.58C16.3238 14.7113 16.25 14.8893 16.25 15.075V15.625C16.25 15.7908 16.1842 15.9497 16.067 16.0669C15.9497 16.1842 15.7908 16.25 15.625 16.25C15.4593 16.25 15.3003 16.1842 15.1831 16.0669C15.0659 15.9497 15 15.7908 15 15.625V15.075C15 14.8189 15.0504 14.5654 15.1484 14.3288C15.2464 14.0922 15.3901 13.8772 15.5712 13.6961C15.7522 13.5151 15.9672 13.3714 16.2038 13.2734C16.4404 13.1754 16.6939 13.125 16.95 13.125H17.425C17.9422 13.125 18.4382 13.3304 18.8039 13.6961C19.1696 14.0618 19.375 14.5578 19.375 15.075C19.3767 15.3315 19.3272 15.5857 19.2296 15.8228C19.1319 16.06 18.988 16.2753 18.8063 16.4563L16.5063 18.75H18.75C18.9158 18.75 19.0747 18.8158 19.192 18.9331C19.3092 19.0503 19.375 19.2092 19.375 19.375C19.375 19.5408 19.3092 19.6997 19.192 19.8169C19.0747 19.9342 18.9158 20 18.75 20ZM23.125 17.5C22.462 17.5 21.8261 17.2366 21.3572 16.7678C20.8884 16.2989 20.625 15.663 20.625 15V13.75C20.625 13.5842 20.6909 13.4253 20.8081 13.3081C20.9253 13.1908 21.0842 13.125 21.25 13.125C21.4158 13.125 21.5747 13.1908 21.692 13.3081C21.8092 13.4253 21.875 13.5842 21.875 13.75V15C21.875 15.3315 22.0067 15.6495 22.2411 15.8839C22.4755 16.1183 22.7935 16.25 23.125 16.25H23.75V13.75C23.75 13.5842 23.8159 13.4253 23.9331 13.3081C24.0503 13.1908 24.2092 13.125 24.375 13.125C24.5408 13.125 24.6997 13.1908 24.817 13.3081C24.9342 13.4253 25 13.5842 25 13.75V16.875L25 16.8788V19.375C25 19.5408 24.9342 19.6997 24.8169 19.8169C24.6997 19.9342 24.5408 20 24.375 20C24.2092 20 24.0503 19.9342 23.9331 19.8169C23.8158 19.6997 23.75 19.5408 23.75 19.375V17.5H23.125ZM19.7452 24.996C18.2274 24.9484 16.7514 24.4762 15.486 23.6307C14.1498 22.7379 13.1084 21.469 12.4935 19.9843C11.8785 18.4997 11.7176 16.866 12.0311 15.2899C12.3446 13.7138 13.1185 12.2661 14.2548 11.1298C15.3911 9.99346 16.8388 9.21963 18.4149 8.90612C19.991 8.59262 21.6247 8.75352 23.1093 9.36848C24.594 9.98344 25.8629 11.0248 26.7557 12.361C27.6485 13.6971 28.125 15.268 28.125 16.875C28.125 17.0408 28.0592 17.1997 27.9419 17.3169C27.8247 17.4342 27.6658 17.5 27.5 17.5C27.3342 17.5 27.1753 17.4342 27.0581 17.3169C26.9409 17.1997 26.875 17.0408 26.875 16.875C26.875 15.5153 26.4718 14.186 25.7164 13.0555C24.9609 11.9249 23.8872 11.0437 22.631 10.5233C21.3747 10.003 19.9924 9.86683 18.6588 10.1321C17.3251 10.3974 16.1001 11.0522 15.1386 12.0136C14.1772 12.9751 13.5224 14.2001 13.2571 15.5338C12.9918 16.8674 13.128 18.2497 13.6483 19.506C14.1687 20.7622 15.0499 21.8359 16.1805 22.5914C17.2378 23.2978 18.4689 23.6963 19.7362 23.7449L18.9315 22.9437C18.8138 22.8261 18.7476 22.6664 18.7476 22.5C18.7476 22.3336 18.8138 22.1739 18.9315 22.0562C19.0491 21.9386 19.2088 21.8724 19.3752 21.8724C19.5416 21.8724 19.7013 21.9386 19.819 22.0562L21.694 23.9312C21.7525 23.9893 21.799 24.0585 21.8308 24.1346C21.8625 24.2108 21.8788 24.2925 21.8788 24.375C21.8788 24.4575 21.8625 24.5392 21.8308 24.6154C21.799 24.6915 21.7525 24.7606 21.694 24.8187L19.819 26.6937C19.7606 26.7517 19.6913 26.7975 19.6151 26.8286C19.539 26.8597 19.4575 26.8755 19.3752 26.875C19.293 26.8755 19.2114 26.8597 19.1353 26.8286C19.0591 26.7975 18.9899 26.7517 18.9315 26.6937C18.8729 26.6356 18.8264 26.5665 18.7946 26.4904C18.7629 26.4142 18.7466 26.3325 18.7466 26.25C18.7466 26.1675 18.7629 26.0858 18.7946 26.0096C18.8264 25.9335 18.8729 25.8643 18.9315 25.8062L19.7452 24.996Z"/>
</mask>
<path fill-rule="evenodd" clip-rule="evenodd" d="M33.6892 16.2104C32.922 16.1127 32.1853 15.8379 31.5385 15.4046C30.7354 14.8666 30.1054 14.1074 29.7249 13.2188C28.8895 11.3235 27.5184 9.71366 25.7802 8.58735C24.0419 7.46104 22.0124 6.86735 19.9411 6.8793C17.8699 6.89126 15.8474 7.50833 14.1222 8.65462C12.3971 9.80092 11.0446 11.4265 10.2312 13.3313C9.88022 14.1862 9.28529 14.919 8.5206 15.438C7.86302 15.8844 7.10494 16.1557 6.3178 16.2297C6.27506 16.6517 6.25243 17.0756 6.25 17.5V21.25H6.32938C6.4401 20.8212 6.66377 20.4257 6.98223 20.1072C7.45107 19.6384 8.08696 19.375 8.75 19.375C9.41304 19.375 10.0489 19.6384 10.5178 20.1072C10.9866 20.5761 11.25 21.212 11.25 21.875V30.625C11.25 31.288 10.9866 31.9239 10.5178 32.3928C10.0489 32.8616 9.41304 33.125 8.75 33.125C8.08696 33.125 7.45107 32.8616 6.98223 32.3928C6.66377 32.0743 6.4401 31.6788 6.32938 31.25H5C4.33696 31.25 3.70107 30.9866 3.23223 30.5178C2.76339 30.0489 2.5 29.413 2.5 28.75V23.75C2.5 23.087 2.76339 22.4511 3.23223 21.9822C3.70107 21.5134 4.33696 21.25 5 21.25V17.5C5.00014 16.8754 5.04011 16.2514 5.11967 15.6319C5.11935 15.6025 5.1211 15.5731 5.12494 15.5438C5.60479 11.9403 7.37694 8.63369 10.1119 6.23881C12.8468 3.84392 16.3584 2.52374 19.9937 2.52374C23.629 2.52374 27.1406 3.84392 29.8755 6.23881C32.5716 8.59966 34.332 11.8465 34.8412 15.3903C34.8609 15.4395 34.8744 15.491 34.8813 15.5438C34.9643 16.1925 35.004 16.846 35 17.5V21.25C35.663 21.25 36.2989 21.5134 36.7678 21.9822C37.2366 22.4511 37.5 23.087 37.5 23.75V28.75C37.5 29.413 37.2366 30.0489 36.7678 30.5178C36.4493 30.8362 36.0538 31.0599 35.625 31.1706V31.875C35.625 33.0353 35.1641 34.1481 34.3436 34.9686C33.5231 35.7891 32.4103 36.25 31.25 36.25H23.0178C22.9254 36.5112 22.7754 36.7512 22.5758 36.9508C22.2242 37.3025 21.7473 37.5 21.25 37.5H18.75C18.2527 37.5 17.7758 37.3025 17.4242 36.9508C17.0725 36.5992 16.875 36.1223 16.875 35.625C16.875 35.1277 17.0725 34.6508 17.4242 34.2992C17.7758 33.9475 18.2527 33.75 18.75 33.75H21.25C21.7473 33.75 22.2242 33.9475 22.5758 34.2992C22.7755 34.4988 22.9254 34.7388 23.0178 35H31.25C32.0788 35 32.8737 34.6708 33.4597 34.0847C34.0458 33.4987 34.375 32.7038 34.375 31.875V31.25H33.6706C33.5599 31.6788 33.3362 32.0743 33.0178 32.3928C32.5489 32.8616 31.913 33.125 31.25 33.125C30.587 33.125 29.9511 32.8616 29.4822 32.3928C29.0134 31.9239 28.75 31.288 28.75 30.625V21.875C28.75 21.212 29.0134 20.5761 29.4822 20.1072C29.9511 19.6384 30.587 19.375 31.25 19.375C31.913 19.375 32.5489 19.6384 33.0178 20.1072C33.3362 20.4257 33.5599 20.8212 33.6706 21.25H33.75V17.5C33.7505 17.0693 33.7302 16.639 33.6892 16.2104ZM11.2243 6.91374C13.6915 4.8688 16.7954 3.74979 19.9999 3.75002C21.8105 3.73946 23.605 4.08935 25.2789 4.77931C26.9528 5.46927 28.4727 6.4855 29.7499 7.76877C31.6953 9.71745 33.0142 12.2029 33.5374 14.9063C32.9555 14.7713 32.4135 14.5012 31.9553 14.118C31.4971 13.7347 31.1356 13.2489 30.8999 12.7C30.2964 11.3521 29.4488 10.1273 28.3999 9.08752C27.0256 7.71466 25.3356 6.69989 23.4778 6.13219C21.6201 5.56448 19.6515 5.46118 17.7445 5.83134C15.8376 6.2015 14.0506 7.03382 12.5402 8.25532C11.0297 9.47682 9.84204 11.0502 9.08119 12.8375C8.85906 13.3779 8.50545 13.8541 8.05248 14.223C7.59951 14.592 7.06154 14.8419 6.48744 14.95C7.08172 11.8011 8.75717 8.95868 11.2243 6.91374ZM33.75 22.5H34.3712L34.375 22.5L34.3788 22.5H35C35.3315 22.5 35.6495 22.6317 35.8839 22.8661C36.1183 23.1005 36.25 23.4185 36.25 23.75V28.75C36.25 29.0815 36.1183 29.3995 35.8839 29.6339C35.6495 29.8683 35.3315 30 35 30H33.75V22.5ZM5 22.5H5.62122L5.625 22.5L5.62878 22.5H6.25V30H5C4.66848 30 4.35054 29.8683 4.11612 29.6339C3.8817 29.3995 3.75 29.0815 3.75 28.75V23.75C3.75 23.4185 3.8817 23.1005 4.11612 22.8661C4.35054 22.6317 4.66848 22.5 5 22.5ZM7.5 30.625V21.875C7.5 21.5435 7.6317 21.2255 7.86612 20.9911C8.10054 20.7567 8.41848 20.625 8.75 20.625C9.08152 20.625 9.39946 20.7567 9.63388 20.9911C9.8683 21.2255 10 21.5435 10 21.875V30.625C10 30.9565 9.8683 31.2745 9.63388 31.5089C9.39946 31.7433 9.08152 31.875 8.75 31.875C8.41848 31.875 8.10054 31.7433 7.86612 31.5089C7.6317 31.2745 7.5 30.9565 7.5 30.625ZM32.5 30.625V21.875C32.5 21.5435 32.3683 21.2255 32.1339 20.9911C31.8995 20.7567 31.5815 20.625 31.25 20.625C30.9185 20.625 30.6005 20.7567 30.3661 20.9911C30.1317 21.2255 30 21.5435 30 21.875V30.625C30 30.9565 30.1317 31.2745 30.3661 31.5089C30.6005 31.7433 30.9185 31.875 31.25 31.875C31.5815 31.875 31.8995 31.7433 32.1339 31.5089C32.3683 31.2745 32.5 30.9565 32.5 30.625ZM18.3081 35.1831C18.4253 35.0658 18.5842 35 18.75 35H21.25C21.4158 35 21.5747 35.0658 21.6919 35.1831C21.8092 35.3003 21.875 35.4592 21.875 35.625C21.875 35.7908 21.8092 35.9497 21.6919 36.0669C21.5747 36.1842 21.4158 36.25 21.25 36.25H18.75C18.5842 36.25 18.4253 36.1842 18.3081 36.0669C18.1908 35.9497 18.125 35.7908 18.125 35.625C18.125 35.4592 18.1908 35.3003 18.3081 35.1831ZM18.75 20H15.625C15.4593 20 15.3003 19.9342 15.1831 19.8169C15.0659 19.6997 15 19.5408 15 19.375V18.75C14.9995 18.6677 15.0153 18.5862 15.0464 18.5101C15.0775 18.4339 15.1233 18.3647 15.1813 18.3063L17.9188 15.5688C18.0162 15.4709 18.0824 15.3464 18.1093 15.2109C18.1361 15.0754 18.1222 14.9351 18.0694 14.8074C18.0166 14.6798 17.9273 14.5707 17.8126 14.4937C17.698 14.4168 17.5631 14.3755 17.425 14.375H16.95C16.7644 14.375 16.5863 14.4488 16.455 14.58C16.3238 14.7113 16.25 14.8893 16.25 15.075V15.625C16.25 15.7908 16.1842 15.9497 16.067 16.0669C15.9497 16.1842 15.7908 16.25 15.625 16.25C15.4593 16.25 15.3003 16.1842 15.1831 16.0669C15.0659 15.9497 15 15.7908 15 15.625V15.075C15 14.8189 15.0504 14.5654 15.1484 14.3288C15.2464 14.0922 15.3901 13.8772 15.5712 13.6961C15.7522 13.5151 15.9672 13.3714 16.2038 13.2734C16.4404 13.1754 16.6939 13.125 16.95 13.125H17.425C17.9422 13.125 18.4382 13.3304 18.8039 13.6961C19.1696 14.0618 19.375 14.5578 19.375 15.075C19.3767 15.3315 19.3272 15.5857 19.2296 15.8228C19.1319 16.06 18.988 16.2753 18.8063 16.4563L16.5063 18.75H18.75C18.9158 18.75 19.0747 18.8158 19.192 18.9331C19.3092 19.0503 19.375 19.2092 19.375 19.375C19.375 19.5408 19.3092 19.6997 19.192 19.8169C19.0747 19.9342 18.9158 20 18.75 20ZM23.125 17.5C22.462 17.5 21.8261 17.2366 21.3572 16.7678C20.8884 16.2989 20.625 15.663 20.625 15V13.75C20.625 13.5842 20.6909 13.4253 20.8081 13.3081C20.9253 13.1908 21.0842 13.125 21.25 13.125C21.4158 13.125 21.5747 13.1908 21.692 13.3081C21.8092 13.4253 21.875 13.5842 21.875 13.75V15C21.875 15.3315 22.0067 15.6495 22.2411 15.8839C22.4755 16.1183 22.7935 16.25 23.125 16.25H23.75V13.75C23.75 13.5842 23.8159 13.4253 23.9331 13.3081C24.0503 13.1908 24.2092 13.125 24.375 13.125C24.5408 13.125 24.6997 13.1908 24.817 13.3081C24.9342 13.4253 25 13.5842 25 13.75V16.875L25 16.8788V19.375C25 19.5408 24.9342 19.6997 24.8169 19.8169C24.6997 19.9342 24.5408 20 24.375 20C24.2092 20 24.0503 19.9342 23.9331 19.8169C23.8158 19.6997 23.75 19.5408 23.75 19.375V17.5H23.125ZM19.7452 24.996C18.2274 24.9484 16.7514 24.4762 15.486 23.6307C14.1498 22.7379 13.1084 21.469 12.4935 19.9843C11.8785 18.4997 11.7176 16.866 12.0311 15.2899C12.3446 13.7138 13.1185 12.2661 14.2548 11.1298C15.3911 9.99346 16.8388 9.21963 18.4149 8.90612C19.991 8.59262 21.6247 8.75352 23.1093 9.36848C24.594 9.98344 25.8629 11.0248 26.7557 12.361C27.6485 13.6971 28.125 15.268 28.125 16.875C28.125 17.0408 28.0592 17.1997 27.9419 17.3169C27.8247 17.4342 27.6658 17.5 27.5 17.5C27.3342 17.5 27.1753 17.4342 27.0581 17.3169C26.9409 17.1997 26.875 17.0408 26.875 16.875C26.875 15.5153 26.4718 14.186 25.7164 13.0555C24.9609 11.9249 23.8872 11.0437 22.631 10.5233C21.3747 10.003 19.9924 9.86683 18.6588 10.1321C17.3251 10.3974 16.1001 11.0522 15.1386 12.0136C14.1772 12.9751 13.5224 14.2001 13.2571 15.5338C12.9918 16.8674 13.128 18.2497 13.6483 19.506C14.1687 20.7622 15.0499 21.8359 16.1805 22.5914C17.2378 23.2978 18.4689 23.6963 19.7362 23.7449L18.9315 22.9437C18.8138 22.8261 18.7476 22.6664 18.7476 22.5C18.7476 22.3336 18.8138 22.1739 18.9315 22.0562C19.0491 21.9386 19.2088 21.8724 19.3752 21.8724C19.5416 21.8724 19.7013 21.9386 19.819 22.0562L21.694 23.9312C21.7525 23.9893 21.799 24.0585 21.8308 24.1346C21.8625 24.2108 21.8788 24.2925 21.8788 24.375C21.8788 24.4575 21.8625 24.5392 21.8308 24.6154C21.799 24.6915 21.7525 24.7606 21.694 24.8187L19.819 26.6937C19.7606 26.7517 19.6913 26.7975 19.6151 26.8286C19.539 26.8597 19.4575 26.8755 19.3752 26.875C19.293 26.8755 19.2114 26.8597 19.1353 26.8286C19.0591 26.7975 18.9899 26.7517 18.9315 26.6937C18.8729 26.6356 18.8264 26.5665 18.7946 26.4904C18.7629 26.4142 18.7466 26.3325 18.7466 26.25C18.7466 26.1675 18.7629 26.0858 18.7946 26.0096C18.8264 25.9335 18.8729 25.8643 18.9315 25.8062L19.7452 24.996Z" fill="white"/>
<path d="M31.5385 15.4046L31.6498 15.2384L31.5385 15.4046ZM33.6892 16.2104L33.8883 16.1914L33.873 16.0322L33.7145 16.012L33.6892 16.2104ZM29.7249 13.2188L29.9088 13.14L29.9079 13.1381L29.7249 13.2188ZM25.7802 8.58735L25.6714 8.75519L25.7802 8.58735ZM19.9411 6.8793L19.9423 7.0793L19.9411 6.8793ZM14.1222 8.65462L14.0116 8.48805L14.1222 8.65462ZM10.2312 13.3313L10.0472 13.2527L10.0462 13.2553L10.2312 13.3313ZM8.5206 15.438L8.63293 15.6035V15.6035L8.5206 15.438ZM6.3178 16.2297L6.29909 16.0306L6.13538 16.046L6.11882 16.2095L6.3178 16.2297ZM6.25 17.5L6.05 17.4989V17.5H6.25ZM6.25 21.25H6.05V21.45H6.25V21.25ZM6.32938 21.25V21.45H6.48429L6.52303 21.3L6.32938 21.25ZM6.98223 20.1072L6.84081 19.9658V19.9658L6.98223 20.1072ZM10.5178 20.1072L10.6592 19.9658V19.9658L10.5178 20.1072ZM10.5178 32.3928L10.6592 32.5342V32.5342L10.5178 32.3928ZM6.98223 32.3928L6.84081 32.5342V32.5342L6.98223 32.3928ZM6.32938 31.25L6.52303 31.2L6.48429 31.05H6.32938V31.25ZM3.23223 30.5178L3.09081 30.6592L3.09081 30.6592L3.23223 30.5178ZM3.23223 21.9822L3.09081 21.8408L3.09081 21.8408L3.23223 21.9822ZM5 21.25V21.45H5.2V21.25H5ZM5 17.5L4.8 17.5V17.5H5ZM5.11967 15.6319L5.31804 15.6573L5.31981 15.6436L5.31965 15.6297L5.11967 15.6319ZM5.12494 15.5438L4.92669 15.5174L4.92663 15.5178L5.12494 15.5438ZM10.1119 6.23881L9.98011 6.08834L10.1119 6.23881ZM29.8755 6.23881L30.0073 6.08834L29.8755 6.23881ZM34.8412 15.3903L34.6432 15.4188L34.6466 15.4425L34.6556 15.4648L34.8412 15.3903ZM34.8813 15.5438L35.0796 15.5184L35.0796 15.518L34.8813 15.5438ZM35 17.5L34.8 17.4988V17.5H35ZM35 21.25H34.8V21.45H35V21.25ZM36.7678 21.9822L36.6263 22.1237V22.1237L36.7678 21.9822ZM35.625 31.1706L35.575 30.977L35.425 31.0157V31.1706H35.625ZM34.3436 34.9686L34.485 35.11H34.485L34.3436 34.9686ZM23.0178 36.25V36.05H22.8763L22.8292 36.1833L23.0178 36.25ZM22.5758 36.9508L22.7172 37.0922L22.5758 36.9508ZM17.4242 36.9508L17.2828 37.0922L17.4242 36.9508ZM17.4242 34.2992L17.2828 34.1578V34.1578L17.4242 34.2992ZM23.0178 35L22.8292 35.0667L22.8764 35.2H23.0178V35ZM33.4597 34.0847L33.6011 34.2261H33.6011L33.4597 34.0847ZM34.375 31.25H34.575V31.05H34.375V31.25ZM33.6706 31.25V31.05H33.5157L33.477 31.2L33.6706 31.25ZM33.0178 32.3928L33.1592 32.5342L33.1592 32.5342L33.0178 32.3928ZM29.4822 32.3928L29.3408 32.5342L29.3408 32.5342L29.4822 32.3928ZM29.4822 20.1072L29.3408 19.9658L29.3408 19.9658L29.4822 20.1072ZM33.0178 20.1072L33.1592 19.9658L33.1592 19.9658L33.0178 20.1072ZM33.6706 21.25L33.477 21.3L33.5157 21.45H33.6706V21.25ZM33.75 21.25V21.45H33.95V21.25H33.75ZM33.75 17.5L33.55 17.4998V17.5H33.75ZM19.9999 3.75002L19.9999 3.95003L20.0011 3.95002L19.9999 3.75002ZM11.2243 6.91374L11.0967 6.75976L11.2243 6.91374ZM25.2789 4.77931L25.2027 4.96422L25.2789 4.77931ZM29.7499 7.76877L29.6082 7.90986L29.6084 7.91008L29.7499 7.76877ZM33.5374 14.9063L33.4922 15.1011L33.7923 15.1707L33.7338 14.8683L33.5374 14.9063ZM31.9553 14.118L31.827 14.2714V14.2714L31.9553 14.118ZM30.8999 12.7L31.0837 12.6211L31.0825 12.6183L30.8999 12.7ZM28.3999 9.08752L28.2586 9.22902L28.2591 9.22956L28.3999 9.08752ZM23.4778 6.13219L23.5363 5.94092L23.4778 6.13219ZM17.7445 5.83134L17.7826 6.02768L17.7445 5.83134ZM12.5402 8.25532L12.4144 8.09981L12.5402 8.25532ZM9.08119 12.8375L8.89715 12.7592L8.89621 12.7615L9.08119 12.8375ZM6.48744 14.95L6.29091 14.9129L6.23658 15.2008L6.52447 15.1466L6.48744 14.95ZM34.3712 22.5L34.3718 22.3H34.3712V22.5ZM33.75 22.5V22.3H33.55V22.5H33.75ZM34.375 22.5L34.3744 22.7L34.3756 22.7L34.375 22.5ZM34.3788 22.5V22.3L34.3782 22.3L34.3788 22.5ZM33.75 30H33.55V30.2H33.75V30ZM5.62122 22.5L5.62182 22.3H5.62122V22.5ZM5.625 22.5L5.6244 22.7L5.6256 22.7L5.625 22.5ZM5.62878 22.5V22.3L5.62818 22.3L5.62878 22.5ZM6.25 22.5H6.45V22.3H6.25V22.5ZM6.25 30V30.2H6.45V30H6.25ZM4.11612 29.6339L4.25754 29.4925L4.11612 29.6339ZM4.11612 22.8661L4.25754 23.0075L4.11612 22.8661ZM7.86612 20.9911L7.7247 20.8497V20.8497L7.86612 20.9911ZM9.63388 20.9911L9.7753 20.8497V20.8497L9.63388 20.9911ZM9.63388 31.5089L9.7753 31.6503V31.6503L9.63388 31.5089ZM7.86612 31.5089L7.7247 31.6503V31.6503L7.86612 31.5089ZM18.3081 35.1831L18.4495 35.3245H18.4495L18.3081 35.1831ZM21.6919 35.1831L21.5505 35.3245H21.5505L21.6919 35.1831ZM21.6919 36.0669L21.5505 35.9255H21.5505L21.6919 36.0669ZM18.3081 36.0669L18.4495 35.9255H18.4495L18.3081 36.0669ZM15 18.75H15.2L15.2 18.7488L15 18.75ZM15.0464 18.5101L14.8613 18.4344H14.8613L15.0464 18.5101ZM15.1813 18.3063L15.0398 18.1648L15.0393 18.1654L15.1813 18.3063ZM17.9188 15.5688L18.0602 15.7102L18.0605 15.7098L17.9188 15.5688ZM18.1093 15.2109L18.3054 15.2497L18.1093 15.2109ZM17.8126 14.4937L17.7012 14.6598V14.6598L17.8126 14.4937ZM17.425 14.375L17.4257 14.175H17.425V14.375ZM19.375 15.075H19.175L19.175 15.0763L19.375 15.075ZM18.8063 16.4563L18.6652 16.3145L18.665 16.3146L18.8063 16.4563ZM16.5063 18.75L16.365 18.6084L16.0225 18.95H16.5063V18.75ZM19.192 18.9331L19.0505 19.0745V19.0745L19.192 18.9331ZM19.192 19.8169L19.0505 19.6755V19.6755L19.192 19.8169ZM21.3572 16.7678L21.2158 16.9092H21.2158L21.3572 16.7678ZM22.2411 15.8839L22.3825 15.7425L22.2411 15.8839ZM23.75 16.25V16.45H23.95V16.25H23.75ZM25 16.875L25.2 16.8756V16.875H25ZM25 16.8788L24.8 16.8782V16.8788H25ZM23.75 17.5H23.95V17.3H23.75V17.5ZM15.486 23.6307L15.5971 23.4644H15.5971L15.486 23.6307ZM19.7452 24.996L19.8863 25.1377L20.2149 24.8106L19.7515 24.7961L19.7452 24.996ZM12.4935 19.9843L12.6783 19.9078L12.4935 19.9843ZM14.2548 11.1298L14.3962 11.2712L14.2548 11.1298ZM18.4149 8.90612L18.3759 8.70997L18.4149 8.90612ZM26.7557 12.361L26.5894 12.4721V12.4721L26.7557 12.361ZM25.7164 13.0555L25.8827 12.9443L25.7164 13.0555ZM22.631 10.5233L22.7075 10.3386L22.631 10.5233ZM18.6588 10.1321L18.6197 9.93595L18.6588 10.1321ZM15.1386 12.0136L14.9972 11.8722L15.1386 12.0136ZM13.6483 19.506L13.4636 19.5825L13.6483 19.506ZM16.1805 22.5914L16.2916 22.4251L16.1805 22.5914ZM19.7362 23.7449L19.7285 23.9448L20.2401 23.9644L19.8773 23.6032L19.7362 23.7449ZM18.9315 22.9437L18.79 23.0852L18.7903 23.0855L18.9315 22.9437ZM18.9315 22.0562L19.0729 22.1977L19.0729 22.1977L18.9315 22.0562ZM19.819 22.0562L19.6775 22.1977V22.1977L19.819 22.0562ZM21.694 23.9312L21.5525 24.0727L21.5531 24.0732L21.694 23.9312ZM21.694 24.8187L21.5531 24.6767L21.5525 24.6773L21.694 24.8187ZM19.819 26.6937L19.9598 26.8357L19.9604 26.8352L19.819 26.6937ZM19.6151 26.8286L19.6908 27.0138L19.6908 27.0138L19.6151 26.8286ZM19.3752 26.875L19.3764 26.675L19.374 26.675L19.3752 26.875ZM19.1353 26.8286L19.0596 27.0138L19.0596 27.0138L19.1353 26.8286ZM18.9315 26.6937L19.0723 26.5518L19.0723 26.5517L18.9315 26.6937ZM18.9315 25.8062L19.0723 25.9482L19.0726 25.948L18.9315 25.8062ZM31.4272 15.5708C32.0998 16.0214 32.866 16.3071 33.6639 16.4088L33.7145 16.012C32.978 15.9182 32.2707 15.6544 31.6498 15.2384L31.4272 15.5708ZM29.5411 13.2975C29.9368 14.2216 30.5919 15.0113 31.4272 15.5708L31.6498 15.2384C30.8788 14.722 30.2741 13.9931 29.9088 13.14L29.5411 13.2975ZM25.6714 8.75519C27.3769 9.8603 28.7223 11.4398 29.5419 13.2994L29.9079 13.1381C29.0568 11.2071 27.6599 9.56701 25.8889 8.4195L25.6714 8.75519ZM19.9423 7.0793C21.9745 7.06757 23.9659 7.65008 25.6714 8.75519L25.8889 8.4195C24.1179 7.27199 22.0502 6.66713 19.94 6.67931L19.9423 7.0793ZM14.2329 8.8212C15.9256 7.69649 17.9101 7.09103 19.9423 7.0793L19.94 6.67931C17.8298 6.69148 15.7692 7.32017 14.0116 8.48805L14.2329 8.8212ZM10.4151 13.4098C11.2133 11.5409 12.5403 9.94592 14.2329 8.8212L14.0116 8.48805C12.254 9.65592 10.876 11.312 10.0473 13.2527L10.4151 13.4098ZM8.63293 15.6035C9.43011 15.0624 10.0503 14.2985 10.4162 13.4072L10.0462 13.2553C9.71012 14.074 9.14047 14.7755 8.40828 15.2725L8.63293 15.6035ZM6.33651 16.4288C7.1571 16.3517 7.9474 16.0688 8.63293 15.6035L8.40828 15.2725C7.77864 15.6999 7.05278 15.9597 6.29909 16.0306L6.33651 16.4288ZM6.45 17.5012C6.45239 17.0831 6.47469 16.6656 6.51678 16.2498L6.11882 16.2095C6.07544 16.6379 6.05247 17.0681 6.05 17.4989L6.45 17.5012ZM6.45 21.25V17.5H6.05V21.25H6.45ZM6.32938 21.05H6.25V21.45H6.32938V21.05ZM6.84081 19.9658C6.49687 20.3098 6.2553 20.7369 6.13573 21.2L6.52303 21.3C6.62489 20.9055 6.83067 20.5416 7.12365 20.2487L6.84081 19.9658ZM8.75 19.175C8.03392 19.175 7.34716 19.4595 6.84081 19.9658L7.12365 20.2487C7.55499 19.8173 8.14 19.575 8.75 19.575V19.175ZM10.6592 19.9658C10.1528 19.4595 9.46608 19.175 8.75 19.175V19.575C9.36 19.575 9.94501 19.8173 10.3763 20.2487L10.6592 19.9658ZM11.45 21.875C11.45 21.1589 11.1655 20.4722 10.6592 19.9658L10.3763 20.2487C10.8077 20.68 11.05 21.265 11.05 21.875H11.45ZM11.45 30.625V21.875H11.05V30.625H11.45ZM10.6592 32.5342C11.1655 32.0278 11.45 31.3411 11.45 30.625H11.05C11.05 31.235 10.8077 31.82 10.3763 32.2513L10.6592 32.5342ZM8.75 33.325C9.46608 33.325 10.1528 33.0405 10.6592 32.5342L10.3763 32.2513C9.94501 32.6827 9.36 32.925 8.75 32.925V33.325ZM6.84081 32.5342C7.34716 33.0405 8.03392 33.325 8.75 33.325V32.925C8.14 32.925 7.55499 32.6827 7.12365 32.2513L6.84081 32.5342ZM6.13573 31.3C6.2553 31.7631 6.49687 32.1902 6.84081 32.5342L7.12365 32.2513C6.83067 31.9584 6.62489 31.5945 6.52303 31.2L6.13573 31.3ZM5 31.45H6.32938V31.05H5V31.45ZM3.09081 30.6592C3.59716 31.1655 4.28392 31.45 5 31.45V31.05C4.39 31.05 3.80499 30.8077 3.37365 30.3763L3.09081 30.6592ZM2.3 28.75C2.3 29.4661 2.58446 30.1528 3.09081 30.6592L3.37365 30.3763C2.94232 29.945 2.7 29.36 2.7 28.75H2.3ZM2.3 23.75V28.75H2.7V23.75H2.3ZM3.09081 21.8408C2.58446 22.3472 2.3 23.0339 2.3 23.75H2.7C2.7 23.14 2.94232 22.555 3.37365 22.1237L3.09081 21.8408ZM5 21.05C4.28392 21.05 3.59716 21.3345 3.09081 21.8408L3.37365 22.1237C3.80499 21.6923 4.39 21.45 5 21.45V21.05ZM4.8 17.5V21.25H5.2V17.5H4.8ZM4.92129 15.6064C4.84066 16.2343 4.80014 16.8668 4.8 17.5L5.2 17.5001C5.20014 16.8839 5.23957 16.2684 5.31804 15.6573L4.92129 15.6064ZM4.92663 15.5178C4.92157 15.5564 4.91926 15.5953 4.91968 15.634L5.31965 15.6297C5.31944 15.6097 5.32063 15.5897 5.32324 15.5698L4.92663 15.5178ZM9.98011 6.08834C7.20871 8.51516 5.41293 11.8658 4.92669 15.5174L5.32319 15.5702C5.79664 12.0147 7.54516 8.75223 10.2436 6.38927L9.98011 6.08834ZM19.9937 2.32374C16.3099 2.32374 12.7515 3.66153 9.98011 6.08834L10.2436 6.38927C12.9421 4.02632 16.4069 2.72374 19.9937 2.72374V2.32374ZM30.0073 6.08834C27.2359 3.66153 23.6774 2.32374 19.9937 2.32374V2.72374C23.5805 2.72374 27.0453 4.02632 29.7437 6.38927L30.0073 6.08834ZM35.0392 15.3619C34.5232 11.7708 32.7393 8.48067 30.0073 6.08834L29.7437 6.38927C32.4039 8.71865 34.1408 11.9222 34.6432 15.4188L35.0392 15.3619ZM35.0796 15.518C35.0706 15.4485 35.0528 15.3806 35.0268 15.3159L34.6556 15.4648C34.669 15.4984 34.6782 15.5335 34.6829 15.5695L35.0796 15.518ZM35.2 17.5012C35.204 16.8383 35.1638 16.1759 35.0796 15.5184L34.6829 15.5692C34.7648 16.209 34.8039 16.8537 34.8 17.4988L35.2 17.5012ZM35.2 21.25V17.5H34.8V21.25H35.2ZM36.9092 21.8408C36.4028 21.3345 35.7161 21.05 35 21.05V21.45C35.61 21.45 36.195 21.6923 36.6263 22.1237L36.9092 21.8408ZM37.7 23.75C37.7 23.0339 37.4155 22.3472 36.9092 21.8408L36.6263 22.1237C37.0577 22.555 37.3 23.14 37.3 23.75H37.7ZM37.7 28.75V23.75H37.3V28.75H37.7ZM36.9092 30.6592C37.4155 30.1528 37.7 29.4661 37.7 28.75H37.3C37.3 29.36 37.0577 29.945 36.6263 30.3763L36.9092 30.6592ZM35.675 31.3643C36.1381 31.2447 36.5652 31.0031 36.9092 30.6592L36.6263 30.3763C36.3334 30.6693 35.9695 30.8751 35.575 30.977L35.675 31.3643ZM35.825 31.875V31.1706H35.425V31.875H35.825ZM34.485 35.11C35.343 34.252 35.825 33.0884 35.825 31.875H35.425C35.425 32.9823 34.9851 34.0442 34.2022 34.8272L34.485 35.11ZM31.25 36.45C32.4634 36.45 33.627 35.968 34.485 35.11L34.2022 34.8272C33.4192 35.6101 32.3573 36.05 31.25 36.05V36.45ZM23.0178 36.45H31.25V36.05H23.0178V36.45ZM22.7172 37.0922C22.9382 36.8713 23.1041 36.6057 23.2063 36.3167L22.8292 36.1833C22.7467 36.4167 22.6127 36.6311 22.4344 36.8094L22.7172 37.0922ZM21.25 37.7C21.8003 37.7 22.3281 37.4814 22.7172 37.0922L22.4344 36.8094C22.1203 37.1235 21.6942 37.3 21.25 37.3V37.7ZM18.75 37.7H21.25V37.3H18.75V37.7ZM17.2828 37.0922C17.6719 37.4814 18.1997 37.7 18.75 37.7V37.3C18.3058 37.3 17.8797 37.1235 17.5656 36.8094L17.2828 37.0922ZM16.675 35.625C16.675 36.1753 16.8936 36.7031 17.2828 37.0922L17.5656 36.8094C17.2515 36.4953 17.075 36.0692 17.075 35.625H16.675ZM17.2828 34.1578C16.8936 34.5469 16.675 35.0747 16.675 35.625H17.075C17.075 35.1808 17.2515 34.7547 17.5656 34.4406L17.2828 34.1578ZM18.75 33.55C18.1997 33.55 17.6719 33.7686 17.2828 34.1578L17.5656 34.4406C17.8797 34.1265 18.3058 33.95 18.75 33.95V33.55ZM21.25 33.55H18.75V33.95H21.25V33.55ZM22.7172 34.1578C22.3281 33.7686 21.8003 33.55 21.25 33.55V33.95C21.6942 33.95 22.1203 34.1265 22.4344 34.4406L22.7172 34.1578ZM23.2063 34.9333C23.1041 34.6443 22.9382 34.3787 22.7172 34.1578L22.4344 34.4406C22.6127 34.6189 22.7467 34.8333 22.8292 35.0667L23.2063 34.9333ZM31.25 34.8H23.0178V35.2H31.25V34.8ZM33.3183 33.9433C32.7697 34.4918 32.0258 34.8 31.25 34.8V35.2C32.1318 35.2 32.9776 34.8497 33.6011 34.2261L33.3183 33.9433ZM34.175 31.875C34.175 32.6508 33.8668 33.3948 33.3183 33.9433L33.6011 34.2261C34.2247 33.6026 34.575 32.7569 34.575 31.875H34.175ZM34.175 31.25V31.875H34.575V31.25H34.175ZM33.6706 31.45H34.375V31.05H33.6706V31.45ZM33.1592 32.5342C33.5031 32.1902 33.7447 31.7631 33.8643 31.3L33.477 31.2C33.3751 31.5945 33.1693 31.9584 32.8763 32.2513L33.1592 32.5342ZM31.25 33.325C31.9661 33.325 32.6528 33.0405 33.1592 32.5342L32.8763 32.2513C32.445 32.6827 31.86 32.925 31.25 32.925V33.325ZM29.3408 32.5342C29.8472 33.0405 30.5339 33.325 31.25 33.325V32.925C30.64 32.925 30.055 32.6827 29.6237 32.2513L29.3408 32.5342ZM28.55 30.625C28.55 31.3411 28.8345 32.0278 29.3408 32.5342L29.6237 32.2513C29.1923 31.82 28.95 31.235 28.95 30.625H28.55ZM28.55 21.875V30.625H28.95V21.875H28.55ZM29.3408 19.9658C28.8345 20.4722 28.55 21.1589 28.55 21.875H28.95C28.95 21.265 29.1923 20.68 29.6237 20.2487L29.3408 19.9658ZM31.25 19.175C30.5339 19.175 29.8472 19.4595 29.3408 19.9658L29.6237 20.2487C30.055 19.8173 30.64 19.575 31.25 19.575V19.175ZM33.1592 19.9658C32.6528 19.4595 31.9661 19.175 31.25 19.175V19.575C31.86 19.575 32.445 19.8173 32.8763 20.2487L33.1592 19.9658ZM33.8643 21.2C33.7447 20.7369 33.5031 20.3098 33.1592 19.9658L32.8763 20.2487C33.1693 20.5416 33.3751 20.9055 33.477 21.3L33.8643 21.2ZM33.75 21.05H33.6706V21.45H33.75V21.05ZM33.55 17.5V21.25H33.95V17.5H33.55ZM33.4901 16.2295C33.5305 16.6516 33.5505 17.0755 33.55 17.4998L33.95 17.5002C33.9505 17.0631 33.9299 16.6263 33.8883 16.1914L33.4901 16.2295ZM20 3.55002C16.7489 3.54978 13.5998 4.68507 11.0967 6.75976L11.352 7.06772C13.7833 5.05252 16.842 3.94979 19.9999 3.95002L20 3.55002ZM25.3551 4.5944C23.6567 3.89432 21.8358 3.5393 19.9988 3.55003L20.0011 3.95002C21.7851 3.93961 23.5533 4.28437 25.2027 4.96422L25.3551 4.5944ZM29.8917 7.62769C28.5957 6.3256 27.0536 5.29447 25.3551 4.5944L25.2027 4.96422C26.8521 5.64406 28.3497 6.6454 29.6082 7.90986L29.8917 7.62769ZM33.7338 14.8683C33.203 12.1258 31.865 9.60435 29.8915 7.62747L29.6084 7.91008C31.5257 9.83055 32.8255 12.28 33.3411 14.9443L33.7338 14.8683ZM31.827 14.2714C32.3093 14.6748 32.8797 14.959 33.4922 15.1011L33.5826 14.7114C33.0313 14.5836 32.5178 14.3277 32.0837 13.9646L31.827 14.2714ZM30.7162 12.7789C30.9642 13.3567 31.3447 13.868 31.827 14.2714L32.0837 13.9646C31.6495 13.6014 31.307 13.1412 31.0837 12.6211L30.7162 12.7789ZM28.2591 9.22956C29.2905 10.252 30.1239 11.4563 30.7174 12.7818L31.0825 12.6183C30.4688 11.2478 29.6071 10.0026 28.5407 8.94549L28.2591 9.22956ZM23.4194 6.32345C25.2458 6.8816 26.9074 7.87927 28.2586 9.22902L28.5413 8.94603C27.1438 7.55004 25.4253 6.51818 23.5363 5.94092L23.4194 6.32345ZM17.7826 6.02768C19.6575 5.66375 21.5929 5.76531 23.4194 6.32345L23.5363 5.94092C21.6473 5.36365 19.6455 5.25861 17.7064 5.63501L17.7826 6.02768ZM12.6659 8.41083C14.1509 7.2099 15.9078 6.3916 17.7826 6.02768L17.7064 5.63501C15.7674 6.0114 13.9503 6.85773 12.4144 8.09981L12.6659 8.41083ZM9.26521 12.9159C10.0132 11.1586 11.1809 9.61175 12.6659 8.41083L12.4144 8.09981C10.8785 9.34188 9.67084 10.9418 8.89717 12.7592L9.26521 12.9159ZM8.17878 14.3781C8.65759 13.9881 9.03137 13.4847 9.26616 12.9136L8.89621 12.7615C8.68675 13.271 8.35331 13.7201 7.92618 14.068L8.17878 14.3781ZM6.52447 15.1466C7.13131 15.0322 7.69997 14.7681 8.17878 14.3781L7.92618 14.068C7.49905 14.4158 6.99176 14.6515 6.45041 14.7535L6.52447 15.1466ZM11.0967 6.75976C8.59365 8.83445 6.89384 11.7182 6.29091 14.9129L6.68397 14.9871C7.26961 11.884 8.92069 9.08292 11.352 7.06772L11.0967 6.75976ZM34.3712 22.3H33.75V22.7H34.3712V22.3ZM34.3756 22.3L34.3718 22.3L34.3706 22.7L34.3744 22.7L34.3756 22.3ZM34.3782 22.3L34.3744 22.3L34.3756 22.7L34.3794 22.7L34.3782 22.3ZM35 22.3H34.3788V22.7H35V22.3ZM36.0253 22.7247C35.7534 22.4528 35.3846 22.3 35 22.3V22.7C35.2785 22.7 35.5456 22.8106 35.7425 23.0075L36.0253 22.7247ZM36.45 23.75C36.45 23.3654 36.2972 22.9966 36.0253 22.7247L35.7425 23.0075C35.9394 23.2045 36.05 23.4715 36.05 23.75H36.45ZM36.45 28.75V23.75H36.05V28.75H36.45ZM36.0253 29.7753C36.2972 29.5034 36.45 29.1346 36.45 28.75H36.05C36.05 29.0285 35.9394 29.2955 35.7425 29.4925L36.0253 29.7753ZM35 30.2C35.3846 30.2 35.7534 30.0472 36.0253 29.7753L35.7425 29.4925C35.5456 29.6894 35.2785 29.8 35 29.8V30.2ZM33.75 30.2H35V29.8H33.75V30.2ZM33.55 22.5V30H33.95V22.5H33.55ZM5.62122 22.3H5V22.7H5.62122V22.3ZM5.6256 22.3L5.62182 22.3L5.62061 22.7L5.6244 22.7L5.6256 22.3ZM5.62818 22.3L5.6244 22.3L5.6256 22.7L5.62939 22.7L5.62818 22.3ZM6.25 22.3H5.62878V22.7H6.25V22.3ZM6.45 30V22.5H6.05V30H6.45ZM5 30.2H6.25V29.8H5V30.2ZM3.9747 29.7753C4.24662 30.0472 4.61544 30.2 5 30.2V29.8C4.72152 29.8 4.45445 29.6894 4.25754 29.4925L3.9747 29.7753ZM3.55 28.75C3.55 29.1346 3.70277 29.5034 3.9747 29.7753L4.25754 29.4925C4.06062 29.2955 3.95 29.0285 3.95 28.75H3.55ZM3.55 23.75V28.75H3.95V23.75H3.55ZM3.9747 22.7247C3.70277 22.9966 3.55 23.3654 3.55 23.75H3.95C3.95 23.4715 4.06062 23.2045 4.25754 23.0075L3.9747 22.7247ZM5 22.3C4.61544 22.3 4.24662 22.4528 3.9747 22.7247L4.25754 23.0075C4.45445 22.8106 4.72152 22.7 5 22.7V22.3ZM7.3 21.875V30.625H7.7V21.875H7.3ZM7.7247 20.8497C7.45277 21.1216 7.3 21.4904 7.3 21.875H7.7C7.7 21.5965 7.81063 21.3295 8.00754 21.1325L7.7247 20.8497ZM8.75 20.425C8.36544 20.425 7.99662 20.5778 7.7247 20.8497L8.00754 21.1325C8.20445 20.9356 8.47152 20.825 8.75 20.825V20.425ZM9.7753 20.8497C9.50338 20.5778 9.13456 20.425 8.75 20.425V20.825C9.02848 20.825 9.29555 20.9356 9.49246 21.1325L9.7753 20.8497ZM10.2 21.875C10.2 21.4904 10.0472 21.1216 9.7753 20.8497L9.49246 21.1325C9.68937 21.3295 9.8 21.5965 9.8 21.875H10.2ZM10.2 30.625V21.875H9.8V30.625H10.2ZM9.7753 31.6503C10.0472 31.3784 10.2 31.0096 10.2 30.625H9.8C9.8 30.9035 9.68937 31.1705 9.49246 31.3675L9.7753 31.6503ZM8.75 32.075C9.13456 32.075 9.50338 31.9222 9.7753 31.6503L9.49246 31.3675C9.29555 31.5644 9.02848 31.675 8.75 31.675V32.075ZM7.7247 31.6503C7.99662 31.9222 8.36544 32.075 8.75 32.075V31.675C8.47152 31.675 8.20445 31.5644 8.00754 31.3675L7.7247 31.6503ZM7.3 30.625C7.3 31.0096 7.45277 31.3784 7.7247 31.6503L8.00754 31.3675C7.81063 31.1705 7.7 30.9035 7.7 30.625H7.3ZM32.3 21.875V30.625H32.7V21.875H32.3ZM31.9925 21.1325C32.1894 21.3295 32.3 21.5965 32.3 21.875H32.7C32.7 21.4904 32.5472 21.1216 32.2753 20.8497L31.9925 21.1325ZM31.25 20.825C31.5285 20.825 31.7955 20.9356 31.9925 21.1325L32.2753 20.8497C32.0034 20.5778 31.6346 20.425 31.25 20.425V20.825ZM30.5075 21.1325C30.7045 20.9356 30.9715 20.825 31.25 20.825V20.425C30.8654 20.425 30.4966 20.5778 30.2247 20.8497L30.5075 21.1325ZM30.2 21.875C30.2 21.5965 30.3106 21.3295 30.5075 21.1325L30.2247 20.8497C29.9528 21.1216 29.8 21.4904 29.8 21.875H30.2ZM30.2 30.625V21.875H29.8V30.625H30.2ZM30.5075 31.3675C30.3106 31.1705 30.2 30.9035 30.2 30.625H29.8C29.8 31.0096 29.9528 31.3784 30.2247 31.6503L30.5075 31.3675ZM31.25 31.675C30.9715 31.675 30.7045 31.5644 30.5075 31.3675L30.2247 31.6503C30.4966 31.9222 30.8654 32.075 31.25 32.075V31.675ZM31.9925 31.3675C31.7955 31.5644 31.5285 31.675 31.25 31.675V32.075C31.6346 32.075 32.0034 31.9222 32.2753 31.6503L31.9925 31.3675ZM32.3 30.625C32.3 30.9035 32.1894 31.1705 31.9925 31.3675L32.2753 31.6503C32.5472 31.3784 32.7 31.0096 32.7 30.625H32.3ZM18.75 34.8C18.5312 34.8 18.3214 34.8869 18.1666 35.0416L18.4495 35.3245C18.5292 35.2448 18.6373 35.2 18.75 35.2V34.8ZM21.25 34.8H18.75V35.2H21.25V34.8ZM21.8334 35.0416C21.6786 34.8869 21.4688 34.8 21.25 34.8V35.2C21.3627 35.2 21.4708 35.2448 21.5505 35.3245L21.8334 35.0416ZM22.075 35.625C22.075 35.4062 21.9881 35.1964 21.8334 35.0416L21.5505 35.3245C21.6302 35.4042 21.675 35.5123 21.675 35.625H22.075ZM21.8334 36.2084C21.9881 36.0536 22.075 35.8438 22.075 35.625H21.675C21.675 35.7377 21.6302 35.8458 21.5505 35.9255L21.8334 36.2084ZM21.25 36.45C21.4688 36.45 21.6786 36.3631 21.8334 36.2084L21.5505 35.9255C21.4708 36.0052 21.3627 36.05 21.25 36.05V36.45ZM18.75 36.45H21.25V36.05H18.75V36.45ZM18.1666 36.2084C18.3214 36.3631 18.5312 36.45 18.75 36.45V36.05C18.6373 36.05 18.5292 36.0052 18.4495 35.9255L18.1666 36.2084ZM17.925 35.625C17.925 35.8438 18.0119 36.0536 18.1666 36.2084L18.4495 35.9255C18.3698 35.8458 18.325 35.7377 18.325 35.625H17.925ZM18.1666 35.0416C18.0119 35.1964 17.925 35.4062 17.925 35.625H18.325C18.325 35.5123 18.3698 35.4042 18.4495 35.3245L18.1666 35.0416ZM15.625 20.2H18.75V19.8H15.625V20.2ZM15.0416 19.9584C15.1964 20.1131 15.4062 20.2 15.625 20.2V19.8C15.5123 19.8 15.4042 19.7552 15.3245 19.6755L15.0416 19.9584ZM14.8 19.375C14.8 19.5938 14.8869 19.8036 15.0416 19.9584L15.3245 19.6755C15.2448 19.5958 15.2 19.4877 15.2 19.375H14.8ZM14.8 18.75V19.375H15.2V18.75H14.8ZM14.8613 18.4344C14.8202 18.535 14.7994 18.6426 14.8 18.7512L15.2 18.7488C15.1997 18.6929 15.2104 18.6375 15.2316 18.5857L14.8613 18.4344ZM15.0393 18.1654C14.9628 18.2425 14.9023 18.3339 14.8613 18.4344L15.2316 18.5857C15.2527 18.5339 15.2839 18.4868 15.3233 18.4471L15.0393 18.1654ZM17.7773 15.4273L15.0398 18.1648L15.3227 18.4477L18.0602 15.7102L17.7773 15.4273ZM17.9131 15.1721C17.8939 15.2688 17.8466 15.3578 17.777 15.4277L18.0605 15.7098C18.1858 15.584 18.271 15.4239 18.3054 15.2497L17.9131 15.1721ZM17.8846 14.8839C17.9223 14.975 17.9322 15.0753 17.9131 15.1721L18.3054 15.2497C18.3399 15.0755 18.3221 14.8951 18.2542 14.731L17.8846 14.8839ZM17.7012 14.6598C17.7831 14.7148 17.8469 14.7927 17.8846 14.8839L18.2542 14.731C18.1864 14.5669 18.0715 14.4266 17.9241 14.3277L17.7012 14.6598ZM17.4243 14.575C17.5229 14.5753 17.6193 14.6049 17.7012 14.6598L17.9241 14.3277C17.7767 14.2287 17.6033 14.1756 17.4257 14.175L17.4243 14.575ZM16.95 14.575H17.425V14.175H16.95V14.575ZM16.5965 14.7214C16.6902 14.6277 16.8174 14.575 16.95 14.575V14.175C16.7113 14.175 16.4824 14.2698 16.3136 14.4386L16.5965 14.7214ZM16.45 15.075C16.45 14.9424 16.5027 14.8152 16.5965 14.7214L16.3136 14.4386C16.1448 14.6074 16.05 14.8363 16.05 15.075H16.45ZM16.45 15.625V15.075H16.05V15.625H16.45ZM16.2084 16.2084C16.3631 16.0536 16.45 15.8438 16.45 15.625H16.05C16.05 15.7377 16.0052 15.8458 15.9255 15.9255L16.2084 16.2084ZM15.625 16.45C15.8438 16.45 16.0537 16.3631 16.2084 16.2084L15.9255 15.9255C15.8458 16.0052 15.7377 16.05 15.625 16.05V16.45ZM15.0416 16.2084C15.1964 16.3631 15.4062 16.45 15.625 16.45V16.05C15.5123 16.05 15.4042 16.0052 15.3245 15.9255L15.0416 16.2084ZM14.8 15.625C14.8 15.8438 14.8869 16.0536 15.0416 16.2084L15.3245 15.9255C15.2448 15.8458 15.2 15.7377 15.2 15.625H14.8ZM14.8 15.075V15.625H15.2V15.075H14.8ZM14.9637 14.2522C14.8556 14.5131 14.8 14.7927 14.8 15.075H15.2C15.2 14.8452 15.2453 14.6176 15.3332 14.4053L14.9637 14.2522ZM15.4297 13.5547C15.2301 13.7544 15.0717 13.9914 14.9637 14.2522L15.3332 14.4053C15.4212 14.193 15.5501 14.0001 15.7126 13.8376L15.4297 13.5547ZM16.1272 13.0887C15.8664 13.1967 15.6294 13.3551 15.4297 13.5547L15.7126 13.8376C15.8751 13.6751 16.068 13.5462 16.2803 13.4582L16.1272 13.0887ZM16.95 12.925C16.6677 12.925 16.3881 12.9806 16.1272 13.0887L16.2803 13.4582C16.4926 13.3703 16.7202 13.325 16.95 13.325V12.925ZM17.425 12.925H16.95V13.325H17.425V12.925ZM18.9453 13.5547C18.5421 13.1515 17.9952 12.925 17.425 12.925V13.325C17.8891 13.325 18.3343 13.5094 18.6624 13.8376L18.9453 13.5547ZM19.575 15.075C19.575 14.5048 19.3485 13.9579 18.9453 13.5547L18.6624 13.8376C18.9906 14.1658 19.175 14.6109 19.175 15.075H19.575ZM19.4145 15.899C19.5223 15.6373 19.5768 15.3567 19.575 15.0737L19.175 15.0763C19.1765 15.3062 19.1322 15.5341 19.0446 15.7467L19.4145 15.899ZM18.9474 16.598C19.1479 16.3983 19.3068 16.1607 19.4145 15.899L19.0446 15.7467C18.9571 15.9593 18.8281 16.1523 18.6652 16.3145L18.9474 16.598ZM16.6475 18.8916L18.9475 16.5979L18.665 16.3146L16.365 18.6084L16.6475 18.8916ZM18.75 18.55H16.5063V18.95H18.75V18.55ZM19.3334 18.7916C19.1787 18.6369 18.9688 18.55 18.75 18.55V18.95C18.8627 18.95 18.9708 18.9948 19.0505 19.0745L19.3334 18.7916ZM19.575 19.375C19.575 19.1562 19.4881 18.9464 19.3334 18.7916L19.0505 19.0745C19.1302 19.1542 19.175 19.2623 19.175 19.375H19.575ZM19.3334 19.9584C19.4881 19.8036 19.575 19.5938 19.575 19.375H19.175C19.175 19.4877 19.1302 19.5958 19.0505 19.6755L19.3334 19.9584ZM18.75 20.2C18.9688 20.2 19.1787 20.1131 19.3334 19.9584L19.0505 19.6755C18.9708 19.7552 18.8627 19.8 18.75 19.8V20.2ZM21.2158 16.9092C21.7222 17.4155 22.4089 17.7 23.125 17.7V17.3C22.515 17.3 21.93 17.0577 21.4987 16.6263L21.2158 16.9092ZM20.425 15C20.425 15.7161 20.7095 16.4028 21.2158 16.9092L21.4987 16.6263C21.0673 16.195 20.825 15.61 20.825 15H20.425ZM20.425 13.75V15H20.825V13.75H20.425ZM20.6666 13.1666C20.5119 13.3214 20.425 13.5312 20.425 13.75H20.825C20.825 13.6373 20.8698 13.5292 20.9495 13.4495L20.6666 13.1666ZM21.25 12.925C21.0312 12.925 20.8214 13.0119 20.6666 13.1666L20.9495 13.4495C21.0292 13.3698 21.1373 13.325 21.25 13.325V12.925ZM21.8334 13.1666C21.6787 13.0119 21.4688 12.925 21.25 12.925V13.325C21.3627 13.325 21.4708 13.3698 21.5505 13.4495L21.8334 13.1666ZM22.075 13.75C22.075 13.5312 21.9881 13.3214 21.8334 13.1666L21.5505 13.4495C21.6302 13.5292 21.675 13.6373 21.675 13.75H22.075ZM22.075 15V13.75H21.675V15H22.075ZM22.3825 15.7425C22.1856 15.5455 22.075 15.2785 22.075 15H21.675C21.675 15.3846 21.8278 15.7534 22.0997 16.0253L22.3825 15.7425ZM23.125 16.05C22.8465 16.05 22.5795 15.9394 22.3825 15.7425L22.0997 16.0253C22.3716 16.2972 22.7404 16.45 23.125 16.45V16.05ZM23.75 16.05H23.125V16.45H23.75V16.05ZM23.55 13.75V16.25H23.95V13.75H23.55ZM23.7916 13.1666C23.6369 13.3214 23.55 13.5312 23.55 13.75H23.95C23.95 13.6373 23.9948 13.5292 24.0745 13.4495L23.7916 13.1666ZM24.375 12.925C24.1562 12.925 23.9464 13.0119 23.7916 13.1666L24.0745 13.4495C24.1542 13.3698 24.2623 13.325 24.375 13.325V12.925ZM24.9584 13.1666C24.8037 13.0119 24.5938 12.925 24.375 12.925V13.325C24.4877 13.325 24.5958 13.3698 24.6755 13.4495L24.9584 13.1666ZM25.2 13.75C25.2 13.5312 25.1131 13.3214 24.9584 13.1666L24.6755 13.4495C24.7552 13.5292 24.8 13.6373 24.8 13.75H25.2ZM25.2 16.875V13.75H24.8V16.875H25.2ZM25.2 16.8794L25.2 16.8756L24.8 16.8744L24.8 16.8782L25.2 16.8794ZM25.2 19.375V16.8788H24.8V19.375H25.2ZM24.9584 19.9584C25.1131 19.8036 25.2 19.5938 25.2 19.375H24.8C24.8 19.4877 24.7552 19.5958 24.6755 19.6755L24.9584 19.9584ZM24.375 20.2C24.5938 20.2 24.8036 20.1131 24.9584 19.9584L24.6755 19.6755C24.5958 19.7552 24.4877 19.8 24.375 19.8V20.2ZM23.7916 19.9584C23.9464 20.1131 24.1562 20.2 24.375 20.2V19.8C24.2623 19.8 24.1542 19.7552 24.0745 19.6755L23.7916 19.9584ZM23.55 19.375C23.55 19.5938 23.6369 19.8036 23.7916 19.9584L24.0745 19.6755C23.9948 19.5958 23.95 19.4877 23.95 19.375H23.55ZM23.55 17.5V19.375H23.95V17.5H23.55ZM23.125 17.7H23.75V17.3H23.125V17.7ZM15.3749 23.797C16.6715 24.6633 18.1838 25.1471 19.739 25.1959L19.7515 24.7961C18.2711 24.7497 16.8314 24.2891 15.5971 23.4644L15.3749 23.797ZM12.3087 20.0608C12.9388 21.582 14.0058 22.8822 15.3749 23.797L15.5971 23.4644C14.2938 22.5936 13.2781 21.3559 12.6783 19.9078L12.3087 20.0608ZM11.835 15.2509C11.5137 16.8658 11.6786 18.5396 12.3087 20.0608L12.6783 19.9078C12.0784 18.4597 11.9215 16.8662 12.2273 15.3289L11.835 15.2509ZM14.1133 10.9883C12.9491 12.1526 12.1562 13.636 11.835 15.2509L12.2273 15.3289C12.5331 13.7916 13.2879 12.3795 14.3962 11.2712L14.1133 10.9883ZM18.3759 8.70997C16.761 9.03119 15.2776 9.82407 14.1133 10.9883L14.3962 11.2712C15.5045 10.1629 16.9166 9.40807 18.4539 9.10228L18.3759 8.70997ZM23.1858 9.18371C21.6646 8.55361 19.9908 8.38874 18.3759 8.70997L18.4539 9.10228C19.9912 8.79649 21.5847 8.95343 23.0328 9.55326L23.1858 9.18371ZM26.922 12.2499C26.0072 10.8808 24.707 9.81381 23.1858 9.18371L23.0328 9.55326C24.4809 10.1531 25.7186 11.1689 26.5894 12.4721L26.922 12.2499ZM28.325 16.875C28.325 15.2285 27.8368 13.6189 26.922 12.2499L26.5894 12.4721C27.4602 13.7754 27.925 15.3076 27.925 16.875H28.325ZM28.0834 17.4584C28.2381 17.3036 28.325 17.0938 28.325 16.875H27.925C27.925 16.9877 27.8802 17.0958 27.8005 17.1755L28.0834 17.4584ZM27.5 17.7C27.7188 17.7 27.9286 17.6131 28.0834 17.4584L27.8005 17.1755C27.7208 17.2552 27.6127 17.3 27.5 17.3V17.7ZM26.9166 17.4584C27.0714 17.6131 27.2812 17.7 27.5 17.7V17.3C27.3873 17.3 27.2792 17.2552 27.1995 17.1755L26.9166 17.4584ZM26.675 16.875C26.675 17.0938 26.7619 17.3036 26.9166 17.4584L27.1995 17.1755C27.1198 17.0958 27.075 16.9877 27.075 16.875H26.675ZM25.5501 13.1666C26.2835 14.2643 26.675 15.5548 26.675 16.875H27.075C27.075 15.4757 26.6601 14.1078 25.8827 12.9443L25.5501 13.1666ZM22.5544 10.7081C23.7741 11.2133 24.8166 12.0689 25.5501 13.1666L25.8827 12.9443C25.1052 11.7809 24.0003 10.874 22.7075 10.3386L22.5544 10.7081ZM18.6978 10.3283C19.9926 10.0707 21.3347 10.2029 22.5544 10.7081L22.7075 10.3386C21.4147 9.80307 19.9922 9.66296 18.6197 9.93595L18.6978 10.3283ZM15.2801 12.1551C16.2136 11.2215 17.403 10.5858 18.6978 10.3283L18.6197 9.93595C17.2473 10.2089 15.9867 10.8828 14.9972 11.8722L15.2801 12.1551ZM13.4533 15.5728C13.7108 14.278 14.3465 13.0886 15.2801 12.1551L14.9972 11.8722C14.0078 12.8617 13.3339 14.1223 13.0609 15.4947L13.4533 15.5728ZM13.8331 19.4294C13.3279 18.2097 13.1957 16.8676 13.4533 15.5728L13.0609 15.4947C12.788 16.8672 12.9281 18.2897 13.4636 19.5825L13.8331 19.4294ZM16.2916 22.4251C15.1939 21.6916 14.3383 20.6491 13.8331 19.4294L13.4636 19.5825C13.999 20.8753 14.9059 21.9802 16.0693 22.7577L16.2916 22.4251ZM19.7438 23.5451C18.5134 23.4978 17.3182 23.111 16.2916 22.4251L16.0693 22.7577C17.1574 23.4847 18.4243 23.8947 19.7285 23.9448L19.7438 23.5451ZM19.8773 23.6032L19.0726 22.802L18.7903 23.0855L19.595 23.8867L19.8773 23.6032ZM19.0729 22.8023C18.9927 22.7221 18.9476 22.6134 18.9476 22.5H18.5476C18.5476 22.7195 18.6348 22.93 18.79 23.0852L19.0729 22.8023ZM18.9476 22.5C18.9476 22.3866 18.9927 22.2779 19.0729 22.1977L18.79 21.9148C18.6348 22.07 18.5476 22.2805 18.5476 22.5H18.9476ZM19.0729 22.1977C19.1531 22.1175 19.2618 22.0724 19.3752 22.0724V21.6724C19.1557 21.6724 18.9452 21.7596 18.79 21.9148L19.0729 22.1977ZM19.3752 22.0724C19.4886 22.0724 19.5973 22.1175 19.6775 22.1977L19.9604 21.9148C19.8052 21.7596 19.5947 21.6724 19.3752 21.6724V22.0724ZM19.6775 22.1977L21.5525 24.0727L21.8354 23.7898L19.9604 21.9148L19.6775 22.1977ZM21.5531 24.0732C21.5929 24.1128 21.6246 24.1598 21.6461 24.2116L22.0154 24.0577C21.9735 23.9572 21.9121 23.8659 21.8348 23.7892L21.5531 24.0732ZM21.6461 24.2116C21.6677 24.2633 21.6788 24.3189 21.6788 24.375H22.0788C22.0788 24.2661 22.0573 24.1583 22.0154 24.0577L21.6461 24.2116ZM21.6788 24.375C21.6788 24.4311 21.6677 24.4866 21.6461 24.5384L22.0154 24.6923C22.0573 24.5917 22.0788 24.4839 22.0788 24.375H21.6788ZM21.6461 24.5384C21.6246 24.5902 21.5929 24.6372 21.5531 24.6767L21.8348 24.9607C21.9121 24.8841 21.9735 24.7928 22.0154 24.6923L21.6461 24.5384ZM21.5525 24.6773L19.6775 26.5523L19.9604 26.8352L21.8354 24.9602L21.5525 24.6773ZM19.6781 26.5518C19.6384 26.5911 19.5913 26.6223 19.5395 26.6435L19.6908 27.0138C19.7913 26.9727 19.8827 26.9122 19.9598 26.8357L19.6781 26.5518ZM19.5395 26.6434C19.4877 26.6646 19.4323 26.6753 19.3764 26.675L19.374 27.075C19.4826 27.0756 19.5903 27.0548 19.6908 27.0138L19.5395 26.6434ZM19.374 26.675C19.3181 26.6753 19.2627 26.6646 19.2109 26.6434L19.0596 27.0138C19.1602 27.0548 19.2678 27.0756 19.3764 27.075L19.374 26.675ZM19.2109 26.6435C19.1591 26.6223 19.112 26.5911 19.0723 26.5518L18.7906 26.8357C18.8677 26.9122 18.9591 26.9727 19.0596 27.0138L19.2109 26.6435ZM19.0723 26.5517C19.0325 26.5122 19.0008 26.4652 18.9793 26.4134L18.61 26.5673C18.6519 26.6678 18.7133 26.7591 18.7906 26.8357L19.0723 26.5517ZM18.9793 26.4134C18.9577 26.3616 18.9466 26.3061 18.9466 26.25H18.5466C18.5466 26.3589 18.5681 26.4667 18.61 26.5673L18.9793 26.4134ZM18.9466 26.25C18.9466 26.1939 18.9577 26.1383 18.9793 26.0866L18.61 25.9327C18.5681 26.0333 18.5466 26.1411 18.5466 26.25H18.9466ZM18.9793 26.0866C19.0008 26.0348 19.0325 25.9878 19.0723 25.9482L18.7906 25.6642C18.7133 25.7409 18.6519 25.8322 18.61 25.9327L18.9793 26.0866ZM19.0726 25.948L19.8863 25.1377L19.6041 24.8543L18.7903 25.6645L19.0726 25.948Z" fill="white" mask="url(#path-1-outside-1_0_109)"/>
</svg>
