<svg width="60" height="47" viewBox="0 0 60 47" fill="none" xmlns="http://www.w3.org/2000/svg">
<path d="M21.7216 1.02195C24.7296 2.66948 25.8483 6.43295 24.2287 9.45605L17.0013 22.9469C16.6786 23.5493 16.125 23.9947 15.4674 24.1809L14.0213 24.5904C12.429 25.0412 11.1798 23.3888 12.4088 22.2806C13.382 21.3055 14.5012 20.8179 15.7664 20.8179C18.5888 20.8179 21.1192 21.9881 23.3577 24.3284C25.6934 26.5711 26.8613 29.4965 26.8613 33.1045C26.8613 36.9075 25.5474 40.1741 22.9197 42.9045C20.3893 45.6348 17.2263 47 13.4307 47C9.82968 47 6.66667 45.6836 3.94161 43.0507C1.31387 40.3204 0 37.005 0 33.1045C0 31.5443 0.291971 29.7403 0.875912 27.6925C1.55718 25.6448 2.77372 22.9632 4.52555 19.6478L13.2176 3.53635C14.8641 0.484416 18.6802 -0.643912 21.7216 1.02195ZM54.6573 1.03116C57.6208 2.67628 58.715 6.39565 57.1144 9.38342L49.8619 22.921C49.5301 23.5404 48.9625 23.9997 48.2876 24.1951L46.9311 24.5877C45.3088 25.0573 44.0012 23.4116 45.2555 22.2806C46.326 21.3055 47.4453 20.8179 48.6131 20.8179C51.4355 20.8179 54.0146 21.9881 56.3504 24.3284C58.6861 26.5711 59.854 29.4965 59.854 33.1045C59.854 36.9075 58.5401 40.1741 55.9124 42.9045C53.382 45.6348 50.219 47 46.4234 47C42.8224 47 39.6594 45.6836 36.9343 43.0507C34.3066 40.3204 32.9927 37.005 32.9927 33.1045C32.9927 31.5443 33.2847 29.7403 33.8686 27.6925C34.4526 25.6448 35.6204 22.9632 37.3723 19.6478L46.2032 3.48083C47.8534 0.459921 51.6478 -0.639549 54.6573 1.03116Z" fill="url(#paint0_linear_0_297)" fill-opacity="0.2"/>
<defs>
<linearGradient id="paint0_linear_0_297" x1="30" y1="-2" x2="30" y2="47" gradientUnits="userSpaceOnUse">
<stop stop-color="#BDB2FD"/>
<stop offset="1" stop-color="#917FF2"/>
</linearGradient>
</defs>
</svg>
